<svg xmlns="http://www.w3.org/2000/svg" xmlns:xlink="http://www.w3.org/1999/xlink" width="500" zoomAndPan="magnify" viewBox="0 0 375 374.999991" height="500" preserveAspectRatio="xMidYMid meet" version="1.0"><defs><clipPath id="76ed1dd62d"><path d="M 112.5 112.5 L 262.5 112.5 L 262.5 262.5 L 112.5 262.5 Z M 112.5 112.5 " clip-rule="nonzero"/></clipPath></defs><rect x="-37.5" width="450" fill="#ffffff" y="-37.499999" height="449.999989" fill-opacity="1"/><rect x="-37.5" width="450" fill="#022c22" y="-37.499999" height="449.999989" fill-opacity="1"/><g clip-path="url(#76ed1dd62d)"><path fill="#34d399" d="M 262.5 156.25 L 262.5 162.5 L 112.5 162.5 L 112.5 156.25 C 112.5 138.992188 126.492188 125 143.75 125 L 150 125 L 150 118.75 C 150 115.300781 152.800781 112.5 156.25 112.5 C 159.699219 112.5 162.5 115.300781 162.5 118.75 L 162.5 125 L 212.5 125 L 212.5 118.75 C 212.5 115.300781 215.300781 112.5 218.75 112.5 C 222.199219 112.5 225 115.300781 225 118.75 L 225 125 L 231.25 125 C 248.507812 125 262.5 138.992188 262.5 156.25 Z M 262.5 218.75 C 262.5 242.875 242.867188 262.5 218.75 262.5 C 194.632812 262.5 175 242.875 175 218.75 C 175 194.625 194.632812 175 218.75 175 C 242.867188 175 262.5 194.625 262.5 218.75 Z M 231.25 222.414062 L 225 216.164062 L 225 206.25 C 225 202.800781 222.199219 200 218.75 200 C 215.300781 200 212.5 202.800781 212.5 206.25 L 212.5 218.75 C 212.5 220.40625 213.15625 222 214.332031 223.167969 L 222.414062 231.25 C 224.851562 233.6875 228.8125 233.6875 231.25 231.25 C 233.6875 228.8125 233.6875 224.851562 231.25 222.414062 Z M 162.5 218.75 C 162.5 201.070312 170.675781 185.3125 183.429688 175 L 112.5 175 L 112.5 231.25 C 112.5 248.507812 126.492188 262.5 143.75 262.5 L 183.429688 262.5 C 170.675781 252.1875 162.5 236.429688 162.5 218.75 Z M 162.5 218.75 " fill-opacity="1" fill-rule="nonzero"/></g></svg>