<svg xmlns="http://www.w3.org/2000/svg" xmlns:xlink="http://www.w3.org/1999/xlink" width="500" zoomAndPan="magnify" viewBox="0 0 375 374.999991" height="500" preserveAspectRatio="xMidYMid meet" version="1.0"><defs><clipPath id="2aff499f23"><path d="M 112.5 112.5 L 262.5 112.5 L 262.5 262.5 L 112.5 262.5 Z M 112.5 112.5 " clip-rule="nonzero"/></clipPath></defs><rect x="-37.5" width="450" fill="#ffffff" y="-37.499999" height="449.999989" fill-opacity="1"/><rect x="-37.5" width="450" fill="#022c22" y="-37.499999" height="449.999989" fill-opacity="1"/><g clip-path="url(#2aff499f23)"><path fill="#34d399" d="M 177.5625 167.550781 C 187.167969 157.761719 213.75 145.582031 227.117188 151.542969 L 236.117188 142.542969 C 235.582031 142.25 235.082031 141.910156 234.613281 141.519531 C 234.144531 141.128906 233.714844 140.695312 233.332031 140.21875 C 232.949219 139.746094 232.613281 139.238281 232.328125 138.699219 C 232.042969 138.160156 231.8125 137.597656 231.636719 137.011719 C 231.460938 136.429688 231.34375 135.832031 231.285156 135.226562 C 231.226562 134.617188 231.226562 134.011719 231.285156 133.402344 C 231.34375 132.796875 231.464844 132.199219 231.640625 131.613281 C 231.816406 131.03125 232.046875 130.46875 232.332031 129.929688 C 232.617188 129.390625 232.953125 128.882812 233.335938 128.410156 C 233.722656 127.933594 234.148438 127.503906 234.617188 127.113281 C 235.085938 126.722656 235.589844 126.378906 236.125 126.089844 C 236.660156 125.796875 237.21875 125.558594 237.800781 125.375 C 238.382812 125.191406 238.980469 125.066406 239.585938 125 C 240.191406 124.933594 240.800781 124.925781 241.410156 124.976562 C 242.015625 125.027344 242.613281 125.136719 243.199219 125.304688 C 243.789062 125.472656 244.351562 125.699219 244.894531 125.976562 C 245.4375 126.253906 245.949219 126.582031 246.429688 126.960938 C 246.90625 127.339844 247.34375 127.761719 247.742188 128.226562 C 248.136719 128.691406 248.488281 129.1875 248.785156 129.71875 C 249.085938 130.25 249.332031 130.808594 249.519531 131.386719 C 249.710938 131.96875 249.84375 132.558594 249.917969 133.164062 C 249.996094 133.769531 250.011719 134.378906 249.96875 134.988281 C 249.921875 135.597656 249.820312 136.195312 249.660156 136.785156 C 249.5 137.371094 249.285156 137.941406 249.011719 138.488281 C 249.558594 138.214844 250.128906 138 250.714844 137.839844 C 251.304688 137.679688 251.902344 137.578125 252.511719 137.53125 C 253.121094 137.488281 253.730469 137.503906 254.335938 137.582031 C 254.941406 137.65625 255.53125 137.789062 256.113281 137.980469 C 256.691406 138.167969 257.25 138.414062 257.78125 138.714844 C 258.3125 139.011719 258.808594 139.363281 259.273438 139.757812 C 259.738281 140.15625 260.160156 140.59375 260.539062 141.070312 C 260.917969 141.550781 261.246094 142.0625 261.523438 142.605469 C 261.800781 143.148438 262.027344 143.710938 262.195312 144.300781 C 262.363281 144.886719 262.472656 145.484375 262.523438 146.089844 C 262.574219 146.699219 262.566406 147.308594 262.5 147.914062 C 262.433594 148.519531 262.308594 149.117188 262.125 149.699219 C 261.941406 150.28125 261.703125 150.839844 261.410156 151.375 C 261.121094 151.910156 260.777344 152.414062 260.386719 152.882812 C 259.996094 153.351562 259.566406 153.777344 259.089844 154.164062 C 258.617188 154.546875 258.109375 154.882812 257.570312 155.167969 C 257.03125 155.453125 256.46875 155.683594 255.886719 155.859375 C 255.300781 156.035156 254.703125 156.15625 254.097656 156.214844 C 253.488281 156.273438 252.882812 156.273438 252.273438 156.214844 C 251.667969 156.15625 251.070312 156.039062 250.488281 155.863281 C 249.902344 155.6875 249.339844 155.457031 248.800781 155.171875 C 248.261719 154.886719 247.753906 154.550781 247.28125 154.167969 C 246.804688 153.785156 246.371094 153.355469 245.980469 152.886719 C 245.589844 152.417969 245.25 151.917969 244.957031 151.382812 L 235.929688 160.40625 C 242.0625 175.34375 229.054688 200.867188 219.960938 209.949219 C 191.25 237.179688 150.34375 196.25 177.5625 167.550781 Z M 228.8125 218.800781 C 186.117188 258.554688 128.1875 195.867188 171.25 156.417969 C 170.304688 156.371094 169.355469 156.347656 168.410156 156.34375 C 167.460938 156.34375 166.515625 156.367188 165.570312 156.417969 C 164.625 156.464844 163.679688 156.535156 162.738281 156.632812 C 161.792969 156.726562 160.855469 156.847656 159.917969 156.992188 C 158.984375 157.132812 158.050781 157.300781 157.121094 157.492188 C 156.195312 157.683594 155.273438 157.898438 154.355469 158.136719 C 153.4375 158.375 152.527344 158.632812 151.625 158.917969 C 150.722656 159.203125 149.824219 159.507812 148.9375 159.839844 C 148.050781 160.167969 147.167969 160.519531 146.300781 160.894531 C 145.429688 161.269531 144.570312 161.664062 143.71875 162.082031 C 142.871094 162.5 142.03125 162.941406 141.203125 163.402344 C 140.375 163.863281 139.558594 164.34375 138.757812 164.847656 C 137.953125 165.347656 137.164062 165.871094 136.386719 166.414062 C 135.609375 166.957031 134.847656 167.519531 134.101562 168.097656 C 133.351562 168.679688 132.617188 169.28125 131.902344 169.898438 C 131.183594 170.515625 130.484375 171.152344 129.796875 171.808594 C 129.113281 172.460938 128.445312 173.132812 127.792969 173.820312 C 127.140625 174.507812 126.507812 175.210938 125.894531 175.933594 C 125.277344 176.652344 124.679688 177.386719 124.105469 178.140625 C 123.527344 178.890625 122.96875 179.652344 122.429688 180.433594 C 121.890625 181.210938 121.371094 182.003906 120.871094 182.808594 C 120.371094 183.613281 119.894531 184.433594 119.4375 185.261719 C 118.980469 186.09375 118.546875 186.933594 118.128906 187.785156 C 117.714844 188.636719 117.324219 189.5 116.953125 190.371094 C 116.582031 191.242188 116.234375 192.121094 115.910156 193.011719 C 115.582031 193.902344 115.28125 194.796875 115 195.703125 C 114.71875 196.609375 114.460938 197.519531 114.230469 198.4375 C 113.996094 199.355469 113.785156 200.277344 113.597656 201.207031 C 113.410156 202.136719 113.246094 203.070312 113.109375 204.007812 C 112.96875 204.941406 112.851562 205.882812 112.761719 206.824219 C 112.667969 207.769531 112.601562 208.714844 112.558594 209.660156 C 112.515625 210.605469 112.496094 211.550781 112.5 212.5 L 112.5 228.550781 C 113.550781 261.742188 148.269531 261.300781 168.75 262.5 C 225 263.429688 295.289062 248.054688 246.351562 188.894531 C 244.527344 194.445312 242.136719 199.742188 239.175781 204.785156 C 236.21875 209.824219 232.757812 214.492188 228.792969 218.789062 Z M 162.5 137.5 C 162.910156 137.5 163.316406 137.460938 163.71875 137.378906 C 164.121094 137.300781 164.511719 137.179688 164.890625 137.023438 C 165.269531 136.867188 165.632812 136.675781 165.972656 136.445312 C 166.3125 136.21875 166.628906 135.960938 166.917969 135.667969 C 167.210938 135.378906 167.46875 135.0625 167.695312 134.722656 C 167.925781 134.382812 168.117188 134.019531 168.273438 133.640625 C 168.429688 133.261719 168.550781 132.871094 168.628906 132.46875 C 168.710938 132.066406 168.75 131.660156 168.75 131.25 L 168.75 118.75 C 168.75 118.339844 168.710938 117.933594 168.628906 117.53125 C 168.550781 117.128906 168.429688 116.738281 168.273438 116.359375 C 168.117188 115.980469 167.925781 115.617188 167.695312 115.277344 C 167.46875 114.9375 167.210938 114.621094 166.917969 114.332031 C 166.628906 114.039062 166.3125 113.78125 165.972656 113.554688 C 165.632812 113.324219 165.269531 113.132812 164.890625 112.976562 C 164.511719 112.820312 164.121094 112.699219 163.71875 112.621094 C 163.316406 112.539062 162.910156 112.5 162.5 112.5 C 162.089844 112.5 161.683594 112.539062 161.28125 112.621094 C 160.878906 112.699219 160.488281 112.820312 160.109375 112.976562 C 159.730469 113.132812 159.367188 113.324219 159.027344 113.554688 C 158.6875 113.78125 158.371094 114.039062 158.082031 114.332031 C 157.789062 114.621094 157.53125 114.9375 157.304688 115.277344 C 157.074219 115.617188 156.882812 115.980469 156.726562 116.359375 C 156.570312 116.738281 156.449219 117.128906 156.371094 117.53125 C 156.289062 117.933594 156.25 118.339844 156.25 118.75 L 156.25 131.25 C 156.25 131.660156 156.289062 132.066406 156.371094 132.46875 C 156.449219 132.871094 156.570312 133.261719 156.726562 133.640625 C 156.882812 134.019531 157.074219 134.382812 157.304688 134.722656 C 157.53125 135.0625 157.789062 135.378906 158.082031 135.667969 C 158.371094 135.960938 158.6875 136.21875 159.027344 136.445312 C 159.367188 136.675781 159.730469 136.867188 160.109375 137.023438 C 160.488281 137.179688 160.878906 137.300781 161.28125 137.378906 C 161.683594 137.460938 162.089844 137.5 162.5 137.5 Z M 187.5 137.5 C 187.910156 137.5 188.316406 137.460938 188.71875 137.378906 C 189.121094 137.300781 189.511719 137.179688 189.890625 137.023438 C 190.269531 136.867188 190.632812 136.675781 190.972656 136.445312 C 191.3125 136.21875 191.628906 135.960938 191.917969 135.667969 C 192.210938 135.378906 192.46875 135.0625 192.695312 134.722656 C 192.925781 134.382812 193.117188 134.019531 193.273438 133.640625 C 193.429688 133.261719 193.550781 132.871094 193.628906 132.46875 C 193.710938 132.066406 193.75 131.660156 193.75 131.25 L 193.75 118.75 C 193.75 118.339844 193.710938 117.933594 193.628906 117.53125 C 193.550781 117.128906 193.429688 116.738281 193.273438 116.359375 C 193.117188 115.980469 192.925781 115.617188 192.695312 115.277344 C 192.46875 114.9375 192.210938 114.621094 191.917969 114.332031 C 191.628906 114.039062 191.3125 113.78125 190.972656 113.554688 C 190.632812 113.324219 190.269531 113.132812 189.890625 112.976562 C 189.511719 112.820312 189.121094 112.699219 188.71875 112.621094 C 188.316406 112.539062 187.910156 112.5 187.5 112.5 C 187.089844 112.5 186.683594 112.539062 186.28125 112.621094 C 185.878906 112.699219 185.488281 112.820312 185.109375 112.976562 C 184.730469 113.132812 184.367188 113.324219 184.027344 113.554688 C 183.6875 113.78125 183.371094 114.039062 183.082031 114.332031 C 182.789062 114.621094 182.53125 114.9375 182.304688 115.277344 C 182.074219 115.617188 181.882812 115.980469 181.726562 116.359375 C 181.570312 116.738281 181.449219 117.128906 181.371094 117.53125 C 181.289062 117.933594 181.25 118.339844 181.25 118.75 L 181.25 131.25 C 181.25 131.660156 181.289062 132.066406 181.371094 132.46875 C 181.449219 132.871094 181.570312 133.261719 181.726562 133.640625 C 181.882812 134.019531 182.074219 134.382812 182.304688 134.722656 C 182.53125 135.0625 182.789062 135.378906 183.082031 135.667969 C 183.371094 135.960938 183.6875 136.21875 184.027344 136.445312 C 184.367188 136.675781 184.730469 136.867188 185.109375 137.023438 C 185.488281 137.179688 185.878906 137.300781 186.28125 137.378906 C 186.683594 137.460938 187.089844 137.5 187.5 137.5 Z M 137.5 137.5 C 137.910156 137.5 138.316406 137.460938 138.71875 137.378906 C 139.121094 137.300781 139.511719 137.179688 139.890625 137.023438 C 140.269531 136.867188 140.632812 136.675781 140.972656 136.445312 C 141.3125 136.21875 141.628906 135.960938 141.917969 135.667969 C 142.210938 135.378906 142.46875 135.0625 142.695312 134.722656 C 142.925781 134.382812 143.117188 134.019531 143.273438 133.640625 C 143.429688 133.261719 143.550781 132.871094 143.628906 132.46875 C 143.710938 132.066406 143.75 131.660156 143.75 131.25 L 143.75 118.75 C 143.75 118.339844 143.710938 117.933594 143.628906 117.53125 C 143.550781 117.128906 143.429688 116.738281 143.273438 116.359375 C 143.117188 115.980469 142.925781 115.617188 142.695312 115.277344 C 142.46875 114.9375 142.210938 114.621094 141.917969 114.332031 C 141.628906 114.039062 141.3125 113.78125 140.972656 113.554688 C 140.632812 113.324219 140.269531 113.132812 139.890625 112.976562 C 139.511719 112.820312 139.121094 112.699219 138.71875 112.621094 C 138.316406 112.539062 137.910156 112.5 137.5 112.5 C 137.089844 112.5 136.683594 112.539062 136.28125 112.621094 C 135.878906 112.699219 135.488281 112.820312 135.109375 112.976562 C 134.730469 113.132812 134.367188 113.324219 134.027344 113.554688 C 133.6875 113.78125 133.371094 114.039062 133.082031 114.332031 C 132.789062 114.621094 132.53125 114.9375 132.304688 115.277344 C 132.074219 115.617188 131.882812 115.980469 131.726562 116.359375 C 131.570312 116.738281 131.449219 117.128906 131.371094 117.53125 C 131.289062 117.933594 131.25 118.339844 131.25 118.75 L 131.25 131.25 C 131.25 131.660156 131.289062 132.066406 131.371094 132.46875 C 131.449219 132.871094 131.570312 133.261719 131.726562 133.640625 C 131.882812 134.019531 132.074219 134.382812 132.304688 134.722656 C 132.53125 135.0625 132.789062 135.378906 133.082031 135.667969 C 133.371094 135.960938 133.6875 136.21875 134.027344 136.445312 C 134.367188 136.675781 134.730469 136.867188 135.109375 137.023438 C 135.488281 137.179688 135.878906 137.300781 136.28125 137.378906 C 136.683594 137.460938 137.089844 137.5 137.5 137.5 Z M 137.5 137.5 " fill-opacity="1" fill-rule="nonzero"/></g></svg>