<svg xmlns="http://www.w3.org/2000/svg" xmlns:xlink="http://www.w3.org/1999/xlink" width="500" zoomAndPan="magnify" viewBox="0 0 375 374.999991" height="500" preserveAspectRatio="xMidYMid meet" version="1.0"><defs><g/></defs><path fill="#2ecc71" d="M 201.070312 59.191406 C 200.589844 44.023438 206.136719 28.699219 217.714844 17.125 C 229.292969 5.546875 244.613281 0.00390625 259.78125 0.480469 C 260.261719 15.648438 254.71875 30.96875 243.136719 42.546875 C 231.5625 54.125 216.242188 59.671875 201.070312 59.191406 Z M 179.089844 226.015625 C 146.980469 217.167969 114.6875 210.503906 80.800781 223.742188 C 113.535156 201.261719 160.699219 216.867188 179.089844 226.015625 Z M 85.109375 77.699219 C 52.089844 104.203125 51.789062 171.449219 71.5 218.332031 C 110.757812 191.367188 167.316406 210.082031 189.371094 221.054688 C 172.980469 205.355469 174.914062 194.289062 182.476562 173.523438 C 185.316406 165.722656 190.234375 156.921875 186.535156 150.335938 C 179.609375 150.53125 177.042969 154.578125 177.707031 155.339844 C 183.675781 162.171875 173.058594 167.902344 164.636719 167.148438 C 157.035156 166.46875 151.226562 161.648438 147.46875 156.421875 C 140.109375 146.1875 139.53125 131.527344 142.246094 126.960938 C 146.398438 119.972656 160.984375 109.511719 174.523438 110.222656 C 231.40625 113.234375 231.863281 239.054688 218.859375 267.386719 C 214.742188 272.902344 209.222656 277.589844 202.792969 281.453125 C 205.40625 282.007812 207.902344 282.460938 210.03125 282.660156 C 226.765625 284.222656 243.128906 278.207031 256.75 269.515625 C 260.148438 267.339844 262.363281 265.742188 265.269531 263.371094 C 274.335938 255.972656 280.269531 249.722656 287.21875 239.378906 C 317.34375 194.476562 323.207031 108.527344 284.792969 77.699219 C 245.777344 46.390625 215.339844 68.59375 194.75 75.847656 L 194.75 26.558594 C 194.75 21.171875 190.339844 16.761719 184.953125 16.761719 C 179.566406 16.761719 175.15625 21.171875 175.15625 26.558594 L 175.15625 75.859375 C 154.609375 68.617188 124.144531 46.382812 85.109375 77.699219 Z M 300.601562 165.171875 C 296.289062 132.082031 289.617188 99.644531 261.441406 73.183594 C 298.800781 95.117188 302.40625 144.691406 300.601562 165.171875 " fill-opacity="1" fill-rule="evenodd"/><g fill="#2ecc71" fill-opacity="1"><g transform="translate(5.712595, 370.849755)"><g><path d="M 13.171875 -27.65625 C 13.171875 -27.5625 13.171875 -27.472656 13.171875 -27.390625 C 13.171875 -27.316406 13.171875 -27.226562 13.171875 -27.125 C 13.171875 -25.132812 13.171875 -23.128906 13.171875 -21.109375 C 13.171875 -19.085938 13.148438 -17.082031 13.109375 -15.09375 C 13.109375 -13.8125 13.082031 -12.53125 13.03125 -11.25 C 12.976562 -9.976562 12.953125 -8.707031 12.953125 -7.4375 C 12.953125 -6.46875 12.960938 -5.507812 12.984375 -4.5625 C 13.015625 -3.613281 13.054688 -2.65625 13.109375 -1.6875 C 13.109375 -0.863281 12.800781 -0.300781 12.1875 0 C 11.625 0.257812 10.984375 0.4375 10.265625 0.53125 C 9.347656 0.582031 8.425781 0.582031 7.5 0.53125 C 6.582031 0.476562 5.664062 0.429688 4.75 0.390625 C 4.082031 0.390625 3.695312 0.03125 3.59375 -0.6875 C 3.550781 -0.894531 3.53125 -1.070312 3.53125 -1.21875 C 3.53125 -1.375 3.53125 -1.554688 3.53125 -1.765625 C 3.53125 -4.472656 3.539062 -7.21875 3.5625 -10 C 3.582031 -12.78125 3.59375 -15.550781 3.59375 -18.3125 C 3.550781 -19.738281 3.515625 -21.179688 3.484375 -22.640625 C 3.460938 -24.097656 3.425781 -25.539062 3.375 -26.96875 C 3.375 -29.78125 3.375 -32.585938 3.375 -35.390625 C 3.375 -38.203125 3.375 -41.015625 3.375 -43.828125 C 3.375 -44.847656 3.359375 -45.84375 3.328125 -46.8125 C 3.304688 -47.789062 3.296875 -48.765625 3.296875 -49.734375 C 3.242188 -49.984375 3.203125 -50.234375 3.171875 -50.484375 C 3.148438 -50.742188 3.140625 -50.976562 3.140625 -51.1875 C 3.085938 -51.382812 3.0625 -51.585938 3.0625 -51.796875 C 3.0625 -52.003906 3.0625 -52.207031 3.0625 -52.40625 C 3.0625 -52.914062 3.1875 -53.335938 3.4375 -53.671875 C 3.695312 -54.003906 4.007812 -54.273438 4.375 -54.484375 C 4.46875 -54.535156 4.644531 -54.5625 4.90625 -54.5625 C 5.3125 -54.5625 5.71875 -54.5625 6.125 -54.5625 C 6.539062 -54.5625 6.925781 -54.5625 7.28125 -54.5625 C 7.53125 -54.5625 7.78125 -54.5625 8.03125 -54.5625 C 8.289062 -54.5625 8.550781 -54.5625 8.8125 -54.5625 C 9.269531 -54.507812 9.726562 -54.46875 10.1875 -54.4375 C 10.644531 -54.414062 11.109375 -54.378906 11.578125 -54.328125 C 12.179688 -54.222656 12.613281 -53.863281 12.875 -53.25 C 13.125 -52.632812 13.414062 -52.035156 13.75 -51.453125 C 14.082031 -50.867188 14.351562 -50.269531 14.5625 -49.65625 C 15.019531 -48.476562 15.539062 -47.328125 16.125 -46.203125 C 16.71875 -45.078125 17.269531 -43.953125 17.78125 -42.828125 C 18.644531 -41.046875 19.535156 -39.269531 20.453125 -37.5 C 21.378906 -35.738281 22.328125 -33.96875 23.296875 -32.1875 C 23.597656 -31.625 23.890625 -31.046875 24.171875 -30.453125 C 24.453125 -29.867188 24.773438 -29.296875 25.140625 -28.734375 C 25.648438 -27.765625 26.179688 -26.804688 26.734375 -25.859375 C 27.296875 -24.910156 27.832031 -23.953125 28.34375 -22.984375 C 28.34375 -22.929688 28.421875 -22.851562 28.578125 -22.75 C 28.578125 -22.851562 28.585938 -22.941406 28.609375 -23.015625 C 28.640625 -23.097656 28.65625 -23.164062 28.65625 -23.21875 C 28.65625 -25.820312 28.65625 -28.4375 28.65625 -31.0625 C 28.65625 -33.695312 28.628906 -36.34375 28.578125 -39 C 28.578125 -40.28125 28.523438 -41.546875 28.421875 -42.796875 C 28.328125 -44.046875 28.253906 -45.3125 28.203125 -46.59375 C 28.148438 -47.664062 28.125 -48.75 28.125 -49.84375 C 28.125 -50.9375 28.125 -52.046875 28.125 -53.171875 C 28.125 -53.640625 28.40625 -54 28.96875 -54.25 C 29.53125 -54.457031 30.164062 -54.5625 30.875 -54.5625 C 31.539062 -54.507812 32.207031 -54.46875 32.875 -54.4375 C 33.539062 -54.414062 34.203125 -54.378906 34.859375 -54.328125 C 35.171875 -54.328125 35.488281 -54.328125 35.8125 -54.328125 C 36.144531 -54.328125 36.441406 -54.273438 36.703125 -54.171875 C 36.859375 -54.171875 37.035156 -54.117188 37.234375 -54.015625 C 37.597656 -53.867188 37.78125 -53.585938 37.78125 -53.171875 C 37.726562 -51.585938 37.765625 -49.988281 37.890625 -48.375 C 38.015625 -46.769531 38.101562 -45.148438 38.15625 -43.515625 C 38.3125 -39.234375 38.390625 -34.894531 38.390625 -30.5 C 38.441406 -27.988281 38.453125 -25.484375 38.421875 -22.984375 C 38.398438 -20.484375 38.414062 -17.984375 38.46875 -15.484375 C 38.46875 -13.898438 38.503906 -12.335938 38.578125 -10.796875 C 38.660156 -9.265625 38.722656 -7.707031 38.765625 -6.125 C 38.765625 -5.414062 38.765625 -4.675781 38.765625 -3.90625 C 38.765625 -3.144531 38.789062 -2.40625 38.84375 -1.6875 C 38.84375 -1.375 38.71875 -1.039062 38.46875 -0.6875 C 37.851562 -0.0195312 37.160156 0.3125 36.390625 0.3125 C 35.984375 0.257812 35.578125 0.257812 35.171875 0.3125 C 34.765625 0.363281 34.351562 0.410156 33.9375 0.453125 C 33.425781 0.453125 32.925781 0.460938 32.4375 0.484375 C 31.957031 0.515625 31.460938 0.53125 30.953125 0.53125 C 30.753906 0.53125 30.523438 0.457031 30.265625 0.3125 C 30.160156 0.15625 30.03125 0 29.875 -0.15625 C 29.726562 -0.3125 29.601562 -0.460938 29.5 -0.609375 C 28.988281 -1.484375 28.476562 -2.316406 27.96875 -3.109375 C 27.457031 -3.898438 26.945312 -4.703125 26.4375 -5.515625 C 26.226562 -5.972656 26.007812 -6.429688 25.78125 -6.890625 C 25.550781 -7.347656 25.3125 -7.835938 25.0625 -8.359375 C 24.695312 -9.117188 24.257812 -9.851562 23.75 -10.5625 C 23.238281 -11.28125 22.726562 -12.023438 22.21875 -12.796875 C 21.757812 -13.515625 21.3125 -14.21875 20.875 -14.90625 C 20.445312 -15.59375 20.003906 -16.296875 19.546875 -17.015625 C 18.929688 -18.035156 18.316406 -19.054688 17.703125 -20.078125 C 17.085938 -21.097656 16.5 -22.117188 15.9375 -23.140625 C 15.53125 -23.859375 15.082031 -24.570312 14.59375 -25.28125 C 14.113281 -26 13.71875 -26.765625 13.40625 -27.578125 C 13.40625 -27.628906 13.390625 -27.65625 13.359375 -27.65625 C 13.335938 -27.65625 13.328125 -27.679688 13.328125 -27.734375 C 13.273438 -27.734375 13.25 -27.71875 13.25 -27.6875 C 13.25 -27.664062 13.222656 -27.65625 13.171875 -27.65625 Z M 13.171875 -27.65625 "/></g></g></g><g fill="#2ecc71" fill-opacity="1"><g transform="translate(47.621985, 370.849755)"><g><path d="M 3.21875 -36.015625 C 3.320312 -38.359375 3.382812 -40.691406 3.40625 -43.015625 C 3.4375 -45.347656 3.476562 -47.6875 3.53125 -50.03125 C 3.53125 -50.488281 3.550781 -50.960938 3.59375 -51.453125 C 3.644531 -51.941406 3.671875 -52.441406 3.671875 -52.953125 C 3.722656 -53.765625 4.1875 -54.117188 5.0625 -54.015625 C 5.414062 -54.015625 5.785156 -54.015625 6.171875 -54.015625 C 6.554688 -54.015625 6.925781 -54.039062 7.28125 -54.09375 C 7.632812 -54.09375 7.976562 -54.09375 8.3125 -54.09375 C 8.644531 -54.09375 8.988281 -54.09375 9.34375 -54.09375 C 9.800781 -54.09375 10.25 -54.09375 10.6875 -54.09375 C 11.125 -54.09375 11.570312 -54.09375 12.03125 -54.09375 C 12.332031 -54.09375 12.5625 -53.890625 12.71875 -53.484375 C 12.769531 -53.273438 12.804688 -53.039062 12.828125 -52.78125 C 12.859375 -52.53125 12.875 -52.28125 12.875 -52.03125 C 12.875 -50.695312 12.875 -49.351562 12.875 -48 C 12.875 -46.644531 12.847656 -45.304688 12.796875 -43.984375 C 12.796875 -41.941406 12.71875 -39.875 12.5625 -37.78125 C 12.507812 -36.90625 12.457031 -36.019531 12.40625 -35.125 C 12.363281 -34.238281 12.316406 -33.359375 12.265625 -32.484375 C 12.210938 -31.359375 12.171875 -30.25 12.140625 -29.15625 C 12.117188 -28.0625 12.109375 -26.925781 12.109375 -25.75 C 12.109375 -24.925781 12.117188 -24.082031 12.140625 -23.21875 C 12.171875 -22.351562 12.1875 -21.484375 12.1875 -20.609375 C 12.238281 -18.265625 12.59375 -15.890625 13.25 -13.484375 C 13.457031 -12.671875 13.84375 -11.878906 14.40625 -11.109375 C 15.070312 -10.191406 15.941406 -9.578125 17.015625 -9.265625 C 17.160156 -9.210938 17.320312 -9.175781 17.5 -9.15625 C 17.6875 -9.132812 17.851562 -9.070312 18 -8.96875 C 18.5625 -8.757812 19.097656 -8.664062 19.609375 -8.6875 C 20.117188 -8.71875 20.632812 -8.8125 21.15625 -8.96875 C 21.351562 -9.019531 21.550781 -9.066406 21.75 -9.109375 C 21.957031 -9.160156 22.164062 -9.238281 22.375 -9.34375 C 22.988281 -9.65625 23.484375 -10.078125 23.859375 -10.609375 C 24.242188 -11.148438 24.539062 -11.726562 24.75 -12.34375 C 25.257812 -13.925781 25.644531 -15.582031 25.90625 -17.3125 C 26.101562 -18.644531 26.28125 -19.945312 26.4375 -21.21875 C 26.59375 -22.5 26.671875 -23.78125 26.671875 -25.0625 C 26.671875 -25.625 26.707031 -26.195312 26.78125 -26.78125 C 26.851562 -27.363281 26.914062 -27.9375 26.96875 -28.5 C 27.019531 -29.113281 27.046875 -29.738281 27.046875 -30.375 C 27.046875 -31.019531 27.046875 -31.648438 27.046875 -32.265625 C 27.097656 -34.816406 27.125 -37.351562 27.125 -39.875 C 27.125 -42.40625 27.125 -44.925781 27.125 -47.4375 C 27.125 -48.300781 27.132812 -49.140625 27.15625 -49.953125 C 27.1875 -50.773438 27.226562 -51.59375 27.28125 -52.40625 C 27.332031 -53.382812 27.789062 -53.894531 28.65625 -53.9375 C 29.675781 -53.988281 30.679688 -54.039062 31.671875 -54.09375 C 32.671875 -54.144531 33.660156 -54.195312 34.640625 -54.25 C 34.734375 -54.25 34.816406 -54.25 34.890625 -54.25 C 34.972656 -54.25 35.066406 -54.25 35.171875 -54.25 C 35.929688 -54.25 36.3125 -53.890625 36.3125 -53.171875 C 36.3125 -52.972656 36.3125 -52.78125 36.3125 -52.59375 C 36.3125 -52.414062 36.3125 -52.226562 36.3125 -52.03125 C 36.269531 -49.269531 36.234375 -46.519531 36.203125 -43.78125 C 36.179688 -41.050781 36.171875 -38.304688 36.171875 -35.546875 C 36.117188 -34.117188 36.09375 -32.710938 36.09375 -31.328125 C 36.09375 -29.953125 36.066406 -28.550781 36.015625 -27.125 C 35.960938 -25.238281 35.859375 -23.335938 35.703125 -21.421875 C 35.554688 -19.503906 35.328125 -17.570312 35.015625 -15.625 C 34.609375 -13.28125 34.070312 -11.007812 33.40625 -8.8125 C 33.15625 -7.945312 32.820312 -7.101562 32.40625 -6.28125 C 32 -5.46875 31.515625 -4.675781 30.953125 -3.90625 C 30.546875 -3.289062 30.0625 -2.765625 29.5 -2.328125 C 28.9375 -1.898438 28.347656 -1.484375 27.734375 -1.078125 C 26.816406 -0.566406 25.847656 -0.109375 24.828125 0.296875 C 23.804688 0.710938 22.757812 0.972656 21.6875 1.078125 C 20.96875 1.171875 20.238281 1.191406 19.5 1.140625 C 18.757812 1.097656 18.03125 1.050781 17.3125 1 C 16.957031 0.945312 16.613281 0.894531 16.28125 0.84375 C 15.945312 0.789062 15.628906 0.738281 15.328125 0.6875 C 13.023438 0.0703125 11.03125 -1.097656 9.34375 -2.828125 C 8.988281 -3.242188 8.644531 -3.65625 8.3125 -4.0625 C 7.976562 -4.46875 7.6875 -4.875 7.4375 -5.28125 C 5.238281 -8.8125 3.9375 -12.671875 3.53125 -16.859375 C 3.476562 -17.578125 3.425781 -18.253906 3.375 -18.890625 C 3.320312 -19.523438 3.269531 -20.175781 3.21875 -20.84375 C 3.164062 -21.707031 3.125 -22.597656 3.09375 -23.515625 C 3.070312 -24.441406 3.085938 -25.335938 3.140625 -26.203125 C 3.140625 -27.835938 3.148438 -29.472656 3.171875 -31.109375 C 3.203125 -32.742188 3.21875 -34.378906 3.21875 -36.015625 Z M 3.21875 -36.015625 "/></g></g></g><g fill="#2ecc71" fill-opacity="1"><g transform="translate(87.003025, 370.849755)"><g><path d="M 20.609375 -24.59375 C 20.609375 -21.78125 20.59375 -18.992188 20.5625 -16.234375 C 20.539062 -13.484375 20.503906 -10.703125 20.453125 -7.890625 C 20.453125 -6.660156 20.425781 -5.429688 20.375 -4.203125 C 20.332031 -2.984375 20.285156 -1.757812 20.234375 -0.53125 C 20.234375 -0.0703125 19.953125 0.253906 19.390625 0.453125 C 18.421875 0.660156 17.460938 0.789062 16.515625 0.84375 C 15.566406 0.894531 14.582031 0.84375 13.5625 0.6875 C 13.351562 0.632812 13.132812 0.609375 12.90625 0.609375 C 12.675781 0.609375 12.460938 0.582031 12.265625 0.53125 C 11.285156 0.382812 10.796875 -0.148438 10.796875 -1.078125 C 10.796875 -2.398438 10.796875 -3.710938 10.796875 -5.015625 C 10.796875 -6.316406 10.796875 -7.609375 10.796875 -8.890625 C 10.796875 -10.984375 10.769531 -13.0625 10.71875 -15.125 C 10.675781 -17.195312 10.679688 -19.28125 10.734375 -21.375 C 10.734375 -23.269531 10.769531 -25.171875 10.84375 -27.078125 C 10.914062 -28.992188 11.003906 -30.898438 11.109375 -32.796875 C 11.210938 -34.117188 11.265625 -35.441406 11.265625 -36.765625 C 11.265625 -38.097656 11.265625 -39.40625 11.265625 -40.6875 C 11.265625 -41.25 11.265625 -41.769531 11.265625 -42.25 C 11.265625 -42.738281 11.238281 -43.238281 11.1875 -43.75 C 11.1875 -44.007812 11.171875 -44.148438 11.140625 -44.171875 C 11.117188 -44.203125 10.984375 -44.21875 10.734375 -44.21875 C 9.453125 -44.21875 8.171875 -44.21875 6.890625 -44.21875 C 5.617188 -44.21875 4.316406 -44.164062 2.984375 -44.0625 C 2.878906 -44.0625 2.765625 -44.0625 2.640625 -44.0625 C 2.515625 -44.0625 2.398438 -44.0625 2.296875 -44.0625 C 1.992188 -44.0625 1.789062 -44.265625 1.6875 -44.671875 C 1.632812 -44.972656 1.59375 -45.273438 1.5625 -45.578125 C 1.539062 -45.890625 1.53125 -46.226562 1.53125 -46.59375 C 1.53125 -47.71875 1.554688 -48.828125 1.609375 -49.921875 C 1.660156 -51.015625 1.738281 -52.125 1.84375 -53.25 C 1.894531 -53.863281 2.222656 -54.195312 2.828125 -54.25 C 3.753906 -54.300781 4.6875 -54.335938 5.625 -54.359375 C 6.570312 -54.390625 7.503906 -54.378906 8.421875 -54.328125 C 11.285156 -54.117188 14.144531 -54 17 -53.96875 C 19.863281 -53.945312 22.726562 -53.960938 25.59375 -54.015625 C 26.3125 -54.015625 27.015625 -54.023438 27.703125 -54.046875 C 28.390625 -54.078125 29.066406 -54.09375 29.734375 -54.09375 C 30.140625 -54.09375 30.40625 -54.03125 30.53125 -53.90625 C 30.664062 -53.78125 30.734375 -53.507812 30.734375 -53.09375 C 30.773438 -52.070312 30.757812 -51.035156 30.6875 -49.984375 C 30.613281 -48.941406 30.550781 -47.882812 30.5 -46.8125 C 30.5 -46.613281 30.5 -46.375 30.5 -46.09375 C 30.5 -45.8125 30.5 -45.539062 30.5 -45.28125 C 30.445312 -44.664062 30.140625 -44.335938 29.578125 -44.296875 C 29.523438 -44.296875 29.457031 -44.296875 29.375 -44.296875 C 29.300781 -44.296875 29.21875 -44.296875 29.125 -44.296875 C 28.050781 -44.390625 26.976562 -44.410156 25.90625 -44.359375 C 24.832031 -44.316406 23.78125 -44.269531 22.75 -44.21875 C 22.550781 -44.21875 22.347656 -44.21875 22.140625 -44.21875 C 21.941406 -44.21875 21.738281 -44.21875 21.53125 -44.21875 C 21.28125 -44.21875 21.15625 -44.085938 21.15625 -43.828125 C 21.15625 -43.773438 21.15625 -43.6875 21.15625 -43.5625 C 21.15625 -43.4375 21.15625 -43.320312 21.15625 -43.21875 C 21.15625 -42.09375 21.164062 -40.953125 21.1875 -39.796875 C 21.207031 -38.648438 21.195312 -37.515625 21.15625 -36.390625 C 21.101562 -34.503906 21.050781 -32.640625 21 -30.796875 C 20.945312 -28.960938 20.867188 -27.125 20.765625 -25.28125 C 20.710938 -25.132812 20.6875 -24.90625 20.6875 -24.59375 C 20.6875 -24.59375 20.660156 -24.59375 20.609375 -24.59375 Z M 20.609375 -24.59375 "/></g></g></g><g fill="#2ecc71" fill-opacity="1"><g transform="translate(119.335312, 370.849755)"><g><path d="M 14.71875 -7.359375 C 14.664062 -6.234375 14.613281 -5.09375 14.5625 -3.9375 C 14.507812 -2.789062 14.457031 -1.65625 14.40625 -0.53125 C 14.351562 0.539062 13.816406 1.078125 12.796875 1.078125 C 12.234375 1.078125 11.671875 1.078125 11.109375 1.078125 C 10.546875 1.078125 9.984375 1.078125 9.421875 1.078125 C 8.859375 1.023438 8.296875 0.972656 7.734375 0.921875 C 7.171875 0.867188 6.609375 0.84375 6.046875 0.84375 C 5.847656 0.789062 5.632812 0.765625 5.40625 0.765625 C 5.175781 0.765625 4.929688 0.765625 4.671875 0.765625 C 3.753906 0.765625 3.320312 0.304688 3.375 -0.609375 C 3.476562 -3.421875 3.566406 -6.226562 3.640625 -9.03125 C 3.710938 -11.84375 3.722656 -14.65625 3.671875 -17.46875 C 3.671875 -20.476562 3.671875 -23.476562 3.671875 -26.46875 C 3.671875 -29.457031 3.671875 -32.4375 3.671875 -35.40625 C 3.617188 -36.375 3.59375 -37.34375 3.59375 -38.3125 C 3.59375 -39.28125 3.546875 -40.25 3.453125 -41.21875 C 3.453125 -41.832031 3.410156 -42.445312 3.328125 -43.0625 C 3.253906 -43.675781 3.191406 -44.289062 3.140625 -44.90625 C 3.140625 -45.3125 3.125 -45.726562 3.09375 -46.15625 C 3.070312 -46.59375 3.085938 -47.019531 3.140625 -47.4375 C 3.191406 -48.300781 3.226562 -49.15625 3.25 -50 C 3.28125 -50.84375 3.320312 -51.695312 3.375 -52.5625 C 3.425781 -53.582031 4.015625 -54.117188 5.140625 -54.171875 C 5.898438 -54.222656 6.660156 -54.234375 7.421875 -54.203125 C 8.191406 -54.179688 8.9375 -54.171875 9.65625 -54.171875 C 10.625 -54.171875 11.566406 -54.171875 12.484375 -54.171875 C 13.410156 -54.171875 14.332031 -54.144531 15.25 -54.09375 C 16.476562 -54.039062 17.703125 -54 18.921875 -53.96875 C 20.148438 -53.945312 21.40625 -53.914062 22.6875 -53.875 C 22.9375 -53.875 23.175781 -53.875 23.40625 -53.875 C 23.632812 -53.875 23.851562 -53.875 24.0625 -53.875 C 24.519531 -53.875 24.976562 -53.847656 25.4375 -53.796875 C 25.894531 -53.742188 26.351562 -53.613281 26.8125 -53.40625 C 26.96875 -53.351562 27.125 -53.3125 27.28125 -53.28125 C 27.4375 -53.257812 27.585938 -53.222656 27.734375 -53.171875 C 29.734375 -52.609375 31.34375 -51.535156 32.5625 -49.953125 C 32.664062 -49.804688 32.78125 -49.664062 32.90625 -49.53125 C 33.039062 -49.40625 33.128906 -49.289062 33.171875 -49.1875 C 33.328125 -48.988281 33.46875 -48.796875 33.59375 -48.609375 C 33.726562 -48.429688 33.84375 -48.242188 33.9375 -48.046875 C 34.65625 -46.566406 35.226562 -45.035156 35.65625 -43.453125 C 36.09375 -41.867188 36.363281 -40.234375 36.46875 -38.546875 C 36.625 -36.703125 36.703125 -34.863281 36.703125 -33.03125 C 36.753906 -31.539062 36.597656 -30.09375 36.234375 -28.6875 C 35.878906 -27.289062 35.421875 -25.925781 34.859375 -24.59375 C 34.609375 -23.925781 34.265625 -23.273438 33.828125 -22.640625 C 33.390625 -22.003906 32.941406 -21.378906 32.484375 -20.765625 C 32.285156 -20.460938 32.046875 -20.191406 31.765625 -19.953125 C 31.484375 -19.722656 31.210938 -19.484375 30.953125 -19.234375 C 30.703125 -19.078125 30.648438 -18.875 30.796875 -18.625 C 31.210938 -17.851562 31.625 -17.082031 32.03125 -16.3125 C 32.4375 -15.550781 32.816406 -14.785156 33.171875 -14.015625 C 33.378906 -13.710938 33.546875 -13.394531 33.671875 -13.0625 C 33.804688 -12.726562 33.945312 -12.382812 34.09375 -12.03125 C 34.507812 -11.113281 34.945312 -10.164062 35.40625 -9.1875 C 35.707031 -8.375 36.007812 -7.582031 36.3125 -6.8125 C 36.625 -6.050781 36.929688 -5.257812 37.234375 -4.4375 C 37.335938 -4.238281 37.453125 -4.046875 37.578125 -3.859375 C 37.710938 -3.679688 37.804688 -3.46875 37.859375 -3.21875 C 38.210938 -2.550781 38.492188 -1.910156 38.703125 -1.296875 C 38.796875 -0.890625 38.710938 -0.492188 38.453125 -0.109375 C 38.203125 0.265625 37.875 0.503906 37.46875 0.609375 C 37.257812 0.660156 37.050781 0.6875 36.84375 0.6875 C 36.644531 0.6875 36.421875 0.710938 36.171875 0.765625 C 35.046875 0.765625 33.929688 0.765625 32.828125 0.765625 C 31.734375 0.765625 30.625 0.765625 29.5 0.765625 C 29.289062 0.765625 29.054688 0.765625 28.796875 0.765625 C 28.546875 0.765625 28.296875 0.765625 28.046875 0.765625 C 27.640625 0.867188 27.359375 0.71875 27.203125 0.3125 C 27.203125 0.3125 27.148438 0.257812 27.046875 0.15625 C 26.535156 -0.8125 26 -1.769531 25.4375 -2.71875 C 24.875 -3.664062 24.335938 -4.625 23.828125 -5.59375 C 23.316406 -6.664062 22.816406 -7.738281 22.328125 -8.8125 C 21.847656 -9.882812 21.378906 -10.929688 20.921875 -11.953125 C 20.710938 -12.460938 20.476562 -12.945312 20.21875 -13.40625 C 19.96875 -13.863281 19.71875 -14.320312 19.46875 -14.78125 C 19.414062 -15.09375 19.179688 -15.25 18.765625 -15.25 C 18.566406 -15.195312 18.328125 -15.15625 18.046875 -15.125 C 17.765625 -15.101562 17.492188 -15.09375 17.234375 -15.09375 C 16.878906 -15.039062 16.546875 -15 16.234375 -14.96875 C 15.929688 -14.945312 15.601562 -14.910156 15.25 -14.859375 C 15.039062 -14.859375 14.910156 -14.832031 14.859375 -14.78125 C 14.804688 -14.738281 14.78125 -14.585938 14.78125 -14.328125 C 14.738281 -13.410156 14.71875 -12.476562 14.71875 -11.53125 C 14.71875 -10.582031 14.71875 -9.625 14.71875 -8.65625 C 14.71875 -8.457031 14.71875 -8.253906 14.71875 -8.046875 C 14.71875 -7.835938 14.71875 -7.609375 14.71875 -7.359375 Z M 14.859375 -34.40625 C 14.910156 -34.40625 14.9375 -34.40625 14.9375 -34.40625 C 14.9375 -33.125 14.945312 -31.84375 14.96875 -30.5625 C 15 -29.289062 15.015625 -28.015625 15.015625 -26.734375 C 15.015625 -26.535156 15 -26.332031 14.96875 -26.125 C 14.945312 -25.925781 14.960938 -25.695312 15.015625 -25.4375 C 15.015625 -25.132812 15.195312 -24.984375 15.5625 -24.984375 C 16.21875 -24.984375 16.878906 -24.992188 17.546875 -25.015625 C 18.210938 -25.046875 18.851562 -25.109375 19.46875 -25.203125 C 20.4375 -25.359375 21.328125 -25.59375 22.140625 -25.90625 C 22.859375 -26.101562 23.421875 -26.613281 23.828125 -27.4375 C 23.878906 -27.789062 24.035156 -28.117188 24.296875 -28.421875 C 24.546875 -29.035156 24.796875 -29.675781 25.046875 -30.34375 C 25.304688 -31.007812 25.460938 -31.695312 25.515625 -32.40625 C 25.671875 -33.425781 25.75 -34.4375 25.75 -35.4375 C 25.75 -36.4375 25.722656 -37.421875 25.671875 -38.390625 C 25.671875 -39.515625 25.390625 -40.640625 24.828125 -41.765625 C 24.617188 -42.328125 24.234375 -42.734375 23.671875 -42.984375 C 23.160156 -43.242188 22.597656 -43.445312 21.984375 -43.59375 C 21.378906 -43.75 20.769531 -43.828125 20.15625 -43.828125 C 19.332031 -43.828125 18.523438 -43.8125 17.734375 -43.78125 C 16.941406 -43.757812 16.140625 -43.75 15.328125 -43.75 C 15.066406 -43.75 14.910156 -43.722656 14.859375 -43.671875 C 14.804688 -43.617188 14.78125 -43.46875 14.78125 -43.21875 C 14.78125 -41.789062 14.789062 -40.332031 14.8125 -38.84375 C 14.84375 -37.363281 14.859375 -35.882812 14.859375 -34.40625 Z M 14.859375 -34.40625 "/></g></g></g><g fill="#2ecc71" fill-opacity="1"><g transform="translate(161.16809, 370.849755)"><g><path d="M 40.375 -28.5 C 40.375 -28.25 40.375 -27.984375 40.375 -27.703125 C 40.375 -27.421875 40.375 -27.148438 40.375 -26.890625 C 40.332031 -26.535156 40.3125 -26.15625 40.3125 -25.75 C 40.3125 -25.34375 40.257812 -24.929688 40.15625 -24.515625 C 40.050781 -24.160156 40 -23.816406 40 -23.484375 C 40 -23.148438 39.972656 -22.804688 39.921875 -22.453125 C 39.765625 -21.066406 39.507812 -19.722656 39.15625 -18.421875 C 38.800781 -17.117188 38.414062 -15.804688 38 -14.484375 C 37.695312 -13.460938 37.335938 -12.460938 36.921875 -11.484375 C 36.515625 -10.515625 36.054688 -9.546875 35.546875 -8.578125 C 35.296875 -8.015625 34.988281 -7.460938 34.625 -6.921875 C 34.269531 -6.390625 33.914062 -5.84375 33.5625 -5.28125 C 33.15625 -4.625 32.65625 -4.039062 32.0625 -3.53125 C 31.476562 -3.019531 30.851562 -2.53125 30.1875 -2.0625 C 29.988281 -1.96875 29.796875 -1.84375 29.609375 -1.6875 C 29.429688 -1.53125 29.242188 -1.375 29.046875 -1.21875 C 28.890625 -1.125 28.734375 -1.023438 28.578125 -0.921875 C 28.421875 -0.816406 28.269531 -0.710938 28.125 -0.609375 C 27.8125 -0.503906 27.515625 -0.390625 27.234375 -0.265625 C 26.953125 -0.140625 26.660156 -0.0234375 26.359375 0.078125 C 25.546875 0.484375 24.703125 0.722656 23.828125 0.796875 C 22.960938 0.878906 22.09375 0.921875 21.21875 0.921875 C 20.195312 0.867188 19.175781 0.773438 18.15625 0.640625 C 17.132812 0.515625 16.113281 0.300781 15.09375 0 C 13.914062 -0.300781 12.765625 -0.890625 11.640625 -1.765625 C 11.492188 -1.867188 11.34375 -1.992188 11.1875 -2.140625 C 11.03125 -2.296875 10.851562 -2.425781 10.65625 -2.53125 C 10.5 -2.6875 10.332031 -2.835938 10.15625 -2.984375 C 9.976562 -3.140625 9.8125 -3.296875 9.65625 -3.453125 C 7.664062 -5.691406 6.160156 -8.242188 5.140625 -11.109375 C 4.878906 -11.828125 4.632812 -12.554688 4.40625 -13.296875 C 4.175781 -14.035156 4.007812 -14.8125 3.90625 -15.625 C 3.851562 -16.1875 3.8125 -16.75 3.78125 -17.3125 C 3.757812 -17.875 3.695312 -18.4375 3.59375 -19 C 3.59375 -19.15625 3.582031 -19.304688 3.5625 -19.453125 C 3.539062 -19.609375 3.53125 -19.765625 3.53125 -19.921875 C 3.320312 -20.785156 3.191406 -21.664062 3.140625 -22.5625 C 3.085938 -23.457031 3.085938 -24.335938 3.140625 -25.203125 C 3.191406 -26.023438 3.242188 -26.832031 3.296875 -27.625 C 3.347656 -28.414062 3.398438 -29.21875 3.453125 -30.03125 C 3.503906 -30.59375 3.550781 -31.179688 3.59375 -31.796875 C 3.644531 -32.410156 3.695312 -33.023438 3.75 -33.640625 C 3.90625 -35.066406 4.125 -36.46875 4.40625 -37.84375 C 4.6875 -39.226562 5.054688 -40.609375 5.515625 -41.984375 C 5.722656 -42.546875 5.914062 -43.109375 6.09375 -43.671875 C 6.269531 -44.234375 6.488281 -44.769531 6.75 -45.28125 C 7.15625 -46 7.585938 -46.703125 8.046875 -47.390625 C 8.503906 -48.078125 8.988281 -48.753906 9.5 -49.421875 C 9.957031 -49.984375 10.476562 -50.46875 11.0625 -50.875 C 11.65625 -51.28125 12.207031 -51.691406 12.71875 -52.109375 C 13.4375 -52.671875 14.175781 -53.113281 14.9375 -53.4375 C 15.707031 -53.769531 16.5 -54.066406 17.3125 -54.328125 C 17.875 -54.535156 18.4375 -54.660156 19 -54.703125 C 19.5625 -54.753906 20.097656 -54.804688 20.609375 -54.859375 C 21.378906 -54.859375 22.144531 -54.867188 22.90625 -54.890625 C 23.675781 -54.921875 24.441406 -54.882812 25.203125 -54.78125 C 25.710938 -54.726562 26.195312 -54.640625 26.65625 -54.515625 C 27.125 -54.390625 27.613281 -54.273438 28.125 -54.171875 C 28.125 -54.117188 28.132812 -54.09375 28.15625 -54.09375 C 28.1875 -54.09375 28.203125 -54.09375 28.203125 -54.09375 C 28.910156 -53.738281 29.597656 -53.40625 30.265625 -53.09375 C 30.929688 -52.789062 31.570312 -52.4375 32.1875 -52.03125 C 32.75 -51.664062 33.257812 -51.238281 33.71875 -50.75 C 34.175781 -50.269531 34.582031 -49.773438 34.9375 -49.265625 C 35.8125 -48.140625 36.550781 -46.976562 37.15625 -45.78125 C 37.769531 -44.582031 38.207031 -43.289062 38.46875 -41.90625 C 38.664062 -41.09375 38.851562 -40.265625 39.03125 -39.421875 C 39.21875 -38.578125 39.382812 -37.722656 39.53125 -36.859375 C 39.789062 -35.472656 40.007812 -34.09375 40.1875 -32.71875 C 40.363281 -31.34375 40.425781 -29.9375 40.375 -28.5 Z M 13.171875 -26.203125 C 13.128906 -25.078125 13.144531 -23.925781 13.21875 -22.75 C 13.289062 -21.582031 13.429688 -20.410156 13.640625 -19.234375 C 13.796875 -18.316406 13.988281 -17.410156 14.21875 -16.515625 C 14.445312 -15.617188 14.765625 -14.738281 15.171875 -13.875 C 15.578125 -13.15625 16.070312 -12.539062 16.65625 -12.03125 C 17.25 -11.519531 17.953125 -11.132812 18.765625 -10.875 C 19.179688 -10.78125 19.601562 -10.691406 20.03125 -10.609375 C 20.46875 -10.535156 20.890625 -10.445312 21.296875 -10.34375 C 22.015625 -10.1875 22.71875 -10.195312 23.40625 -10.375 C 24.09375 -10.5625 24.742188 -10.832031 25.359375 -11.1875 C 25.867188 -11.445312 26.273438 -11.789062 26.578125 -12.21875 C 26.890625 -12.65625 27.148438 -13.128906 27.359375 -13.640625 C 27.816406 -14.921875 28.1875 -16.210938 28.46875 -17.515625 C 28.75 -18.816406 28.988281 -20.101562 29.1875 -21.375 C 29.289062 -21.9375 29.367188 -22.523438 29.421875 -23.140625 C 29.472656 -23.753906 29.5 -24.367188 29.5 -24.984375 C 29.550781 -25.953125 29.585938 -26.921875 29.609375 -27.890625 C 29.640625 -28.859375 29.628906 -29.828125 29.578125 -30.796875 C 29.367188 -32.941406 28.9375 -35.191406 28.28125 -37.546875 C 27.8125 -38.972656 27.144531 -40.328125 26.28125 -41.609375 C 26.226562 -41.710938 26.175781 -41.800781 26.125 -41.875 C 26.070312 -41.945312 26 -42.007812 25.90625 -42.0625 C 24.570312 -43.03125 23.140625 -43.492188 21.609375 -43.453125 C 20.023438 -43.453125 18.644531 -42.785156 17.46875 -41.453125 C 16.5 -40.273438 15.71875 -39.007812 15.125 -37.65625 C 14.539062 -36.300781 14.070312 -34.882812 13.71875 -33.40625 C 13.207031 -31.101562 13.023438 -28.703125 13.171875 -26.203125 Z M 13.171875 -26.203125 "/></g></g></g><g fill="#2ecc71" fill-opacity="1"><g transform="translate(204.686434, 370.849755)"><g><path d="M 19.765625 0.921875 C 18.898438 0.972656 18.054688 0.921875 17.234375 0.765625 C 16.421875 0.609375 15.601562 0.429688 14.78125 0.234375 C 13.050781 -0.222656 11.519531 -0.941406 10.1875 -1.921875 C 9.988281 -2.066406 9.757812 -2.21875 9.5 -2.375 C 9.25 -2.53125 9.019531 -2.679688 8.8125 -2.828125 C 8.300781 -3.242188 7.816406 -3.65625 7.359375 -4.0625 C 6.640625 -4.726562 6 -5.457031 5.4375 -6.25 C 4.875 -7.039062 4.335938 -7.84375 3.828125 -8.65625 C 3.671875 -8.914062 3.539062 -9.1875 3.4375 -9.46875 C 3.34375 -9.75 3.242188 -10.015625 3.140625 -10.265625 C 2.984375 -10.722656 3.113281 -11.132812 3.53125 -11.5 C 4.09375 -11.957031 4.648438 -12.453125 5.203125 -12.984375 C 5.765625 -13.523438 6.351562 -14 6.96875 -14.40625 C 7.28125 -14.65625 7.578125 -14.910156 7.859375 -15.171875 C 8.140625 -15.429688 8.40625 -15.6875 8.65625 -15.9375 C 8.96875 -16.238281 9.378906 -16.441406 9.890625 -16.546875 C 10.140625 -16.648438 10.328125 -16.625 10.453125 -16.46875 C 10.585938 -16.320312 10.703125 -16.195312 10.796875 -16.09375 C 11.003906 -15.882812 11.1875 -15.664062 11.34375 -15.4375 C 11.5 -15.207031 11.648438 -14.96875 11.796875 -14.71875 C 12.253906 -14.25 12.703125 -13.769531 13.140625 -13.28125 C 13.578125 -12.800781 14.078125 -12.410156 14.640625 -12.109375 C 14.835938 -12.003906 15.015625 -11.898438 15.171875 -11.796875 C 15.328125 -11.691406 15.503906 -11.59375 15.703125 -11.5 C 16.210938 -11.289062 16.695312 -11.097656 17.15625 -10.921875 C 17.625 -10.742188 18.113281 -10.578125 18.625 -10.421875 C 19.488281 -10.117188 20.378906 -10.09375 21.296875 -10.34375 C 21.859375 -10.550781 22.40625 -10.769531 22.9375 -11 C 23.476562 -11.226562 23.953125 -11.546875 24.359375 -11.953125 C 25.585938 -13.078125 25.921875 -14.457031 25.359375 -16.09375 C 25.003906 -17.0625 24.367188 -17.851562 23.453125 -18.46875 C 23.085938 -18.71875 22.703125 -18.984375 22.296875 -19.265625 C 21.890625 -19.546875 21.484375 -19.789062 21.078125 -20 C 20.460938 -20.351562 19.859375 -20.707031 19.265625 -21.0625 C 18.679688 -21.425781 18.03125 -21.710938 17.3125 -21.921875 C 16.90625 -22.066406 16.5 -22.253906 16.09375 -22.484375 C 15.6875 -22.710938 15.273438 -22.929688 14.859375 -23.140625 C 14.296875 -23.398438 13.8125 -23.65625 13.40625 -23.90625 C 12.945312 -24.257812 12.488281 -24.585938 12.03125 -24.890625 C 11.570312 -25.203125 11.113281 -25.539062 10.65625 -25.90625 C 10.289062 -26.207031 9.929688 -26.523438 9.578125 -26.859375 C 9.222656 -27.191406 8.835938 -27.507812 8.421875 -27.8125 C 8.015625 -28.21875 7.671875 -28.640625 7.390625 -29.078125 C 7.109375 -29.515625 6.84375 -29.988281 6.59375 -30.5 C 6.332031 -31.0625 6.085938 -31.660156 5.859375 -32.296875 C 5.628906 -32.929688 5.460938 -33.554688 5.359375 -34.171875 C 4.648438 -37.742188 5.035156 -41.191406 6.515625 -44.515625 C 6.867188 -45.390625 7.300781 -46.179688 7.8125 -46.890625 C 8.320312 -47.609375 8.832031 -48.328125 9.34375 -49.046875 C 9.957031 -49.804688 10.632812 -50.46875 11.375 -51.03125 C 12.113281 -51.59375 12.894531 -52.128906 13.71875 -52.640625 C 13.96875 -52.796875 14.207031 -52.9375 14.4375 -53.0625 C 14.664062 -53.1875 14.882812 -53.300781 15.09375 -53.40625 C 16.113281 -53.96875 17.1875 -54.320312 18.3125 -54.46875 C 19.4375 -54.625 20.5625 -54.726562 21.6875 -54.78125 C 23.0625 -54.78125 24.363281 -54.601562 25.59375 -54.25 C 26.40625 -54.039062 27.195312 -53.769531 27.96875 -53.4375 C 28.738281 -53.113281 29.453125 -52.671875 30.109375 -52.109375 C 30.671875 -51.742188 31.21875 -51.34375 31.75 -50.90625 C 32.289062 -50.476562 32.765625 -49.984375 33.171875 -49.421875 C 33.484375 -49.066406 33.789062 -48.722656 34.09375 -48.390625 C 34.40625 -48.054688 34.660156 -47.6875 34.859375 -47.28125 C 35.222656 -46.507812 35.148438 -45.789062 34.640625 -45.125 C 34.273438 -44.613281 33.898438 -44.128906 33.515625 -43.671875 C 33.140625 -43.210938 32.742188 -42.726562 32.328125 -42.21875 C 32.128906 -41.96875 31.890625 -41.703125 31.609375 -41.421875 C 31.328125 -41.140625 31.054688 -40.867188 30.796875 -40.609375 C 30.546875 -40.359375 30.253906 -40.191406 29.921875 -40.109375 C 29.585938 -40.035156 29.21875 -40 28.8125 -40 C 28.757812 -40 28.691406 -40.023438 28.609375 -40.078125 C 28.535156 -40.128906 28.445312 -40.179688 28.34375 -40.234375 C 28.09375 -40.484375 27.828125 -40.707031 27.546875 -40.90625 C 27.265625 -41.113281 26.992188 -41.320312 26.734375 -41.53125 C 26.179688 -42.144531 25.414062 -42.578125 24.4375 -42.828125 C 23.625 -43.085938 22.804688 -43.226562 21.984375 -43.25 C 21.171875 -43.28125 20.359375 -43.242188 19.546875 -43.140625 C 18.878906 -43.140625 18.1875 -42.832031 17.46875 -42.21875 C 16.75 -41.707031 16.289062 -41.117188 16.09375 -40.453125 C 15.9375 -39.742188 15.882812 -39.109375 15.9375 -38.546875 C 16.039062 -37.773438 16.347656 -37.082031 16.859375 -36.46875 C 17.316406 -35.851562 17.976562 -35.289062 18.84375 -34.78125 C 19.40625 -34.425781 20.003906 -34.066406 20.640625 -33.703125 C 21.285156 -33.347656 21.890625 -32.992188 22.453125 -32.640625 C 22.609375 -32.535156 22.773438 -32.457031 22.953125 -32.40625 C 23.128906 -32.351562 23.296875 -32.28125 23.453125 -32.1875 C 24.015625 -31.925781 24.570312 -31.664062 25.125 -31.40625 C 25.6875 -31.15625 26.222656 -30.878906 26.734375 -30.578125 C 27.296875 -30.316406 27.820312 -30.054688 28.3125 -29.796875 C 28.800781 -29.546875 29.273438 -29.21875 29.734375 -28.8125 C 29.984375 -28.601562 30.234375 -28.394531 30.484375 -28.1875 C 30.742188 -27.988281 30.976562 -27.785156 31.1875 -27.578125 C 31.394531 -27.429688 31.5625 -27.265625 31.6875 -27.078125 C 31.8125 -26.898438 31.976562 -26.765625 32.1875 -26.671875 C 32.644531 -26.304688 33.078125 -25.921875 33.484375 -25.515625 C 33.890625 -25.109375 34.222656 -24.625 34.484375 -24.0625 C 34.585938 -23.800781 34.710938 -23.539062 34.859375 -23.28125 C 35.015625 -23.03125 35.144531 -22.78125 35.25 -22.53125 C 35.40625 -22.070312 35.570312 -21.597656 35.75 -21.109375 C 35.925781 -20.617188 36.039062 -20.144531 36.09375 -19.6875 C 36.800781 -16.0625 36.414062 -12.585938 34.9375 -9.265625 C 34.582031 -8.453125 34.160156 -7.675781 33.671875 -6.9375 C 33.191406 -6.195312 32.671875 -5.46875 32.109375 -4.75 C 31.546875 -3.976562 30.878906 -3.328125 30.109375 -2.796875 C 29.347656 -2.265625 28.582031 -1.71875 27.8125 -1.15625 C 27.613281 -1.050781 27.394531 -0.929688 27.15625 -0.796875 C 26.925781 -0.671875 26.6875 -0.535156 26.4375 -0.390625 C 25.363281 0.128906 24.273438 0.476562 23.171875 0.65625 C 22.078125 0.832031 20.941406 0.921875 19.765625 0.921875 Z M 19.765625 0.921875 "/></g></g></g><g fill="#2ecc71" fill-opacity="1"><g transform="translate(244.220711, 370.849755)"><g><path d="M 21.6875 1.078125 C 21.582031 1.078125 21.453125 1.078125 21.296875 1.078125 C 21.148438 1.078125 21.023438 1.078125 20.921875 1.078125 C 20.148438 1.128906 19.40625 1.085938 18.6875 0.953125 C 17.976562 0.828125 17.265625 0.660156 16.546875 0.453125 C 16.085938 0.304688 15.640625 0.164062 15.203125 0.03125 C 14.773438 -0.09375 14.359375 -0.234375 13.953125 -0.390625 C 13.742188 -0.484375 13.535156 -0.582031 13.328125 -0.6875 C 13.128906 -0.789062 12.898438 -0.894531 12.640625 -1 C 10.859375 -2.070312 9.378906 -3.375 8.203125 -4.90625 C 7.691406 -5.625 7.203125 -6.363281 6.734375 -7.125 C 6.273438 -7.894531 5.84375 -8.660156 5.4375 -9.421875 C 5.332031 -9.679688 5.203125 -9.910156 5.046875 -10.109375 C 4.898438 -10.316406 4.773438 -10.523438 4.671875 -10.734375 C 4.472656 -11.140625 4.28125 -11.546875 4.09375 -11.953125 C 3.914062 -12.359375 3.773438 -12.765625 3.671875 -13.171875 C 3.617188 -13.484375 3.53125 -13.804688 3.40625 -14.140625 C 3.28125 -14.472656 3.164062 -14.789062 3.0625 -15.09375 C 2.957031 -15.5 2.851562 -15.929688 2.75 -16.390625 C 2.65625 -16.859375 2.554688 -17.296875 2.453125 -17.703125 C 2.347656 -18.265625 2.242188 -18.847656 2.140625 -19.453125 C 2.046875 -20.066406 1.945312 -20.65625 1.84375 -21.21875 C 1.738281 -22.09375 1.671875 -22.9375 1.640625 -23.75 C 1.617188 -24.570312 1.632812 -25.390625 1.6875 -26.203125 C 1.738281 -26.816406 1.8125 -27.414062 1.90625 -28 C 2.007812 -28.59375 2.085938 -29.195312 2.140625 -29.8125 C 2.191406 -30.007812 2.242188 -30.1875 2.296875 -30.34375 C 2.347656 -30.5 2.398438 -30.648438 2.453125 -30.796875 C 2.503906 -31.109375 2.554688 -31.40625 2.609375 -31.6875 C 2.660156 -31.96875 2.710938 -32.257812 2.765625 -32.5625 C 2.804688 -33.28125 2.914062 -34.007812 3.09375 -34.75 C 3.28125 -35.488281 3.472656 -36.21875 3.671875 -36.9375 C 3.878906 -37.550781 4.082031 -38.175781 4.28125 -38.8125 C 4.488281 -39.445312 4.722656 -40.097656 4.984375 -40.765625 C 5.335938 -41.628906 5.71875 -42.492188 6.125 -43.359375 C 6.539062 -44.234375 7.023438 -45.082031 7.578125 -45.90625 C 8.242188 -46.820312 8.984375 -47.675781 9.796875 -48.46875 C 10.617188 -49.257812 11.46875 -50.007812 12.34375 -50.71875 C 13.3125 -51.488281 14.34375 -52.128906 15.4375 -52.640625 C 16.539062 -53.148438 17.648438 -53.609375 18.765625 -54.015625 C 19.078125 -54.117188 19.382812 -54.222656 19.6875 -54.328125 C 20 -54.429688 20.332031 -54.507812 20.6875 -54.5625 C 21.09375 -54.65625 21.488281 -54.703125 21.875 -54.703125 C 22.257812 -54.703125 22.65625 -54.703125 23.0625 -54.703125 C 24.238281 -54.703125 25.335938 -54.523438 26.359375 -54.171875 C 27.378906 -53.816406 28.375 -53.359375 29.34375 -52.796875 C 29.90625 -52.484375 30.453125 -52.125 30.984375 -51.71875 C 31.523438 -51.3125 32.023438 -50.90625 32.484375 -50.5 C 32.847656 -50.238281 33.191406 -49.976562 33.515625 -49.71875 C 33.847656 -49.46875 34.144531 -49.21875 34.40625 -48.96875 C 35.164062 -48.195312 35.703125 -47.300781 36.015625 -46.28125 C 36.117188 -45.925781 36.09375 -45.582031 35.9375 -45.25 C 35.78125 -44.914062 35.578125 -44.597656 35.328125 -44.296875 C 35.066406 -43.929688 34.78125 -43.582031 34.46875 -43.25 C 34.164062 -42.914062 33.8125 -42.625 33.40625 -42.375 C 33.050781 -42.164062 32.691406 -41.921875 32.328125 -41.640625 C 31.972656 -41.359375 31.59375 -41.09375 31.1875 -40.84375 C 31.082031 -40.789062 30.96875 -40.710938 30.84375 -40.609375 C 30.71875 -40.503906 30.601562 -40.40625 30.5 -40.3125 C 30.039062 -39.945312 29.679688 -39.765625 29.421875 -39.765625 C 29.171875 -39.765625 28.835938 -39.921875 28.421875 -40.234375 C 28.273438 -40.378906 28.125 -40.539062 27.96875 -40.71875 C 27.8125 -40.90625 27.660156 -41.097656 27.515625 -41.296875 C 27.148438 -41.703125 26.789062 -42.109375 26.4375 -42.515625 C 26.082031 -42.929688 25.648438 -43.265625 25.140625 -43.515625 C 24.472656 -43.878906 23.78125 -44.070312 23.0625 -44.09375 C 22.34375 -44.125 21.628906 -44.035156 20.921875 -43.828125 C 20.710938 -43.773438 20.519531 -43.722656 20.34375 -43.671875 C 20.164062 -43.617188 19.972656 -43.546875 19.765625 -43.453125 C 18.234375 -42.941406 16.984375 -42.070312 16.015625 -40.84375 C 15.398438 -40.226562 14.914062 -39.359375 14.5625 -38.234375 C 14.351562 -37.773438 14.160156 -37.316406 13.984375 -36.859375 C 13.804688 -36.398438 13.640625 -35.941406 13.484375 -35.484375 C 13.378906 -35.117188 13.289062 -34.734375 13.21875 -34.328125 C 13.144531 -33.921875 13.054688 -33.515625 12.953125 -33.109375 C 12.640625 -31.671875 12.457031 -30.25 12.40625 -28.84375 C 12.363281 -27.4375 12.34375 -25.992188 12.34375 -24.515625 C 12.34375 -23.390625 12.414062 -22.242188 12.5625 -21.078125 C 12.613281 -20.710938 12.703125 -20.335938 12.828125 -19.953125 C 12.960938 -19.578125 13.101562 -19.207031 13.25 -18.84375 C 13.457031 -18.238281 13.675781 -17.640625 13.90625 -17.046875 C 14.132812 -16.460938 14.351562 -15.890625 14.5625 -15.328125 C 14.707031 -15.015625 14.882812 -14.71875 15.09375 -14.4375 C 15.300781 -14.15625 15.476562 -13.863281 15.625 -13.5625 C 15.988281 -12.75 16.601562 -12.085938 17.46875 -11.578125 C 17.820312 -11.367188 18.164062 -11.125 18.5 -10.84375 C 18.832031 -10.5625 19.179688 -10.289062 19.546875 -10.03125 C 20.003906 -9.675781 20.585938 -9.421875 21.296875 -9.265625 C 21.753906 -9.171875 22.203125 -9.054688 22.640625 -8.921875 C 23.078125 -8.796875 23.523438 -8.757812 23.984375 -8.8125 C 24.191406 -8.863281 24.367188 -8.890625 24.515625 -8.890625 C 24.671875 -8.890625 24.851562 -8.914062 25.0625 -8.96875 C 25.3125 -9.070312 25.550781 -9.171875 25.78125 -9.265625 C 26.007812 -9.367188 26.226562 -9.445312 26.4375 -9.5 C 26.789062 -9.601562 27.109375 -9.742188 27.390625 -9.921875 C 27.671875 -10.097656 27.96875 -10.289062 28.28125 -10.5 C 28.6875 -10.75 29.09375 -11.039062 29.5 -11.375 C 29.90625 -11.707031 30.363281 -11.976562 30.875 -12.1875 C 31.539062 -12.4375 32.101562 -12.382812 32.5625 -12.03125 C 33.382812 -11.519531 34.203125 -10.929688 35.015625 -10.265625 C 35.421875 -10.015625 35.789062 -9.75 36.125 -9.46875 C 36.457031 -9.1875 36.800781 -8.914062 37.15625 -8.65625 C 37.925781 -7.988281 38.03125 -7.222656 37.46875 -6.359375 C 37.113281 -5.742188 36.691406 -5.164062 36.203125 -4.625 C 35.722656 -4.09375 35.226562 -3.570312 34.71875 -3.0625 C 34.15625 -2.550781 33.539062 -2.101562 32.875 -1.71875 C 32.207031 -1.34375 31.515625 -1 30.796875 -0.6875 C 29.722656 -0.175781 28.703125 0.179688 27.734375 0.390625 C 26.765625 0.691406 25.769531 0.894531 24.75 1 C 23.726562 1.101562 22.707031 1.128906 21.6875 1.078125 Z M 21.6875 1.078125 "/></g></g></g><g fill="#2ecc71" fill-opacity="1"><g transform="translate(285.13408, 370.849755)"><g><path d="M 37.78125 0.6875 C 37.46875 0.738281 37.144531 0.765625 36.8125 0.765625 C 36.476562 0.765625 36.132812 0.789062 35.78125 0.84375 C 35.625 0.84375 35.46875 0.851562 35.3125 0.875 C 35.164062 0.90625 35.015625 0.921875 34.859375 0.921875 C 34.398438 0.972656 33.941406 1.007812 33.484375 1.03125 C 33.023438 1.0625 32.539062 1.101562 32.03125 1.15625 C 31.675781 1.195312 31.332031 1.191406 31 1.140625 C 30.664062 1.097656 30.34375 0.972656 30.03125 0.765625 C 29.78125 0.609375 29.550781 0.40625 29.34375 0.15625 C 28.988281 -0.613281 28.65625 -1.378906 28.34375 -2.140625 C 28.039062 -2.910156 27.8125 -3.703125 27.65625 -4.515625 C 27.601562 -4.773438 27.550781 -5.019531 27.5 -5.25 C 27.457031 -5.476562 27.4375 -5.695312 27.4375 -5.90625 C 27.332031 -6.207031 27.148438 -6.332031 26.890625 -6.28125 C 26.378906 -6.28125 25.851562 -6.28125 25.3125 -6.28125 C 24.78125 -6.28125 24.234375 -6.253906 23.671875 -6.203125 C 23.109375 -6.148438 22.546875 -6.097656 21.984375 -6.046875 C 21.429688 -6.003906 20.875 -5.957031 20.3125 -5.90625 C 19.644531 -5.851562 18.960938 -5.828125 18.265625 -5.828125 C 17.578125 -5.828125 16.878906 -5.828125 16.171875 -5.828125 C 15.710938 -5.828125 15.441406 -5.828125 15.359375 -5.828125 C 15.285156 -5.828125 15.195312 -5.546875 15.09375 -4.984375 C 15.039062 -4.472656 14.953125 -3.972656 14.828125 -3.484375 C 14.703125 -3.003906 14.507812 -2.53125 14.25 -2.0625 C 14.144531 -1.8125 14.03125 -1.546875 13.90625 -1.265625 C 13.78125 -0.984375 13.664062 -0.710938 13.5625 -0.453125 C 13.40625 0.0546875 13.070312 0.3125 12.5625 0.3125 C 12.257812 0.363281 11.96875 0.398438 11.6875 0.421875 C 11.40625 0.441406 11.109375 0.453125 10.796875 0.453125 C 9.828125 0.503906 8.84375 0.554688 7.84375 0.609375 C 6.851562 0.660156 5.847656 0.710938 4.828125 0.765625 C 4.523438 0.765625 4.234375 0.75 3.953125 0.71875 C 3.671875 0.695312 3.398438 0.660156 3.140625 0.609375 C 2.929688 0.609375 2.675781 0.507812 2.375 0.3125 C 1.65625 -0.101562 1.425781 -0.742188 1.6875 -1.609375 C 1.9375 -2.472656 2.1875 -3.363281 2.4375 -4.28125 C 2.695312 -5.207031 2.929688 -6.101562 3.140625 -6.96875 C 3.347656 -7.53125 3.539062 -8.101562 3.71875 -8.6875 C 3.894531 -9.28125 4.085938 -9.832031 4.296875 -10.34375 C 4.753906 -11.976562 5.132812 -13.613281 5.4375 -15.25 C 5.75 -17.039062 6.132812 -18.800781 6.59375 -20.53125 C 6.945312 -21.757812 7.300781 -22.984375 7.65625 -24.203125 C 8.019531 -25.429688 8.378906 -26.6875 8.734375 -27.96875 C 9.085938 -29.144531 9.429688 -30.296875 9.765625 -31.421875 C 10.097656 -32.546875 10.441406 -33.664062 10.796875 -34.78125 C 11.210938 -36.269531 11.632812 -37.765625 12.0625 -39.265625 C 12.5 -40.773438 12.921875 -42.269531 13.328125 -43.75 C 13.429688 -44.007812 13.519531 -44.289062 13.59375 -44.59375 C 13.675781 -44.90625 13.742188 -45.210938 13.796875 -45.515625 C 14.046875 -46.429688 14.269531 -47.335938 14.46875 -48.234375 C 14.675781 -49.128906 14.910156 -50.035156 15.171875 -50.953125 C 15.273438 -51.210938 15.390625 -51.484375 15.515625 -51.765625 C 15.640625 -52.046875 15.78125 -52.3125 15.9375 -52.5625 C 16.09375 -52.96875 16.375 -53.171875 16.78125 -53.171875 C 17.132812 -53.222656 17.476562 -53.257812 17.8125 -53.28125 C 18.144531 -53.3125 18.488281 -53.351562 18.84375 -53.40625 C 19.507812 -53.507812 20.160156 -53.613281 20.796875 -53.71875 C 21.441406 -53.820312 22.070312 -53.894531 22.6875 -53.9375 C 22.9375 -53.988281 23.203125 -54.023438 23.484375 -54.046875 C 23.765625 -54.078125 24.035156 -54.066406 24.296875 -54.015625 C 24.546875 -53.960938 24.785156 -53.925781 25.015625 -53.90625 C 25.242188 -53.882812 25.460938 -53.894531 25.671875 -53.9375 C 26.484375 -53.988281 26.992188 -53.609375 27.203125 -52.796875 C 27.359375 -52.285156 27.5 -51.785156 27.625 -51.296875 C 27.75 -50.816406 27.863281 -50.320312 27.96875 -49.8125 C 28.019531 -49.707031 28.046875 -49.585938 28.046875 -49.453125 C 28.046875 -49.328125 28.070312 -49.210938 28.125 -49.109375 C 28.375 -48.453125 28.578125 -47.773438 28.734375 -47.078125 C 28.890625 -46.390625 29.039062 -45.691406 29.1875 -44.984375 C 29.289062 -44.367188 29.429688 -43.765625 29.609375 -43.171875 C 29.796875 -42.585938 29.960938 -41.988281 30.109375 -41.375 C 30.421875 -40.40625 30.738281 -39.445312 31.0625 -38.5 C 31.394531 -37.5625 31.691406 -36.578125 31.953125 -35.546875 C 32.203125 -34.785156 32.441406 -33.992188 32.671875 -33.171875 C 32.910156 -32.359375 33.128906 -31.546875 33.328125 -30.734375 C 33.785156 -28.890625 34.257812 -27.035156 34.75 -25.171875 C 35.238281 -23.304688 35.738281 -21.453125 36.25 -19.609375 C 36.5 -18.640625 36.765625 -17.644531 37.046875 -16.625 C 37.328125 -15.601562 37.570312 -14.582031 37.78125 -13.5625 C 37.875 -13 37.984375 -12.410156 38.109375 -11.796875 C 38.242188 -11.179688 38.335938 -10.59375 38.390625 -10.03125 C 38.492188 -9.675781 38.582031 -9.34375 38.65625 -9.03125 C 38.726562 -8.726562 38.789062 -8.398438 38.84375 -8.046875 C 38.945312 -7.585938 39.050781 -7.113281 39.15625 -6.625 C 39.257812 -6.144531 39.363281 -5.648438 39.46875 -5.140625 C 39.5625 -4.773438 39.671875 -4.390625 39.796875 -3.984375 C 39.929688 -3.578125 40.050781 -3.171875 40.15625 -2.765625 C 40.257812 -2.503906 40.347656 -2.234375 40.421875 -1.953125 C 40.492188 -1.671875 40.554688 -1.40625 40.609375 -1.15625 C 40.660156 -0.789062 40.554688 -0.441406 40.296875 -0.109375 C 40.046875 0.222656 39.742188 0.4375 39.390625 0.53125 C 39.128906 0.582031 38.859375 0.632812 38.578125 0.6875 C 38.296875 0.738281 38.03125 0.738281 37.78125 0.6875 Z M 21.21875 -33.03125 C 21.21875 -33.03125 21.207031 -33.03125 21.1875 -33.03125 C 21.164062 -33.03125 21.128906 -33.03125 21.078125 -33.03125 C 21.023438 -32.820312 20.957031 -32.578125 20.875 -32.296875 C 20.800781 -32.015625 20.738281 -31.75 20.6875 -31.5 C 20.382812 -30.113281 20.078125 -28.71875 19.765625 -27.3125 C 19.460938 -25.90625 19.179688 -24.488281 18.921875 -23.0625 C 18.773438 -22.34375 18.632812 -21.613281 18.5 -20.875 C 18.375 -20.132812 18.257812 -19.410156 18.15625 -18.703125 C 18.101562 -18.390625 18.234375 -18.234375 18.546875 -18.234375 C 18.847656 -18.234375 19.140625 -18.234375 19.421875 -18.234375 C 19.703125 -18.234375 20 -18.234375 20.3125 -18.234375 C 21.019531 -18.335938 21.742188 -18.398438 22.484375 -18.421875 C 23.222656 -18.453125 23.953125 -18.519531 24.671875 -18.625 C 25.078125 -18.675781 25.304688 -18.738281 25.359375 -18.8125 C 25.410156 -18.882812 25.382812 -19.101562 25.28125 -19.46875 C 25.226562 -19.5625 25.203125 -19.632812 25.203125 -19.6875 C 25.203125 -19.738281 25.179688 -19.789062 25.140625 -19.84375 C 25.085938 -20.195312 24.992188 -20.523438 24.859375 -20.828125 C 24.734375 -21.140625 24.617188 -21.476562 24.515625 -21.84375 C 24.316406 -22.863281 24.085938 -23.910156 23.828125 -24.984375 C 23.578125 -26.054688 23.269531 -27.078125 22.90625 -28.046875 C 22.707031 -28.609375 22.515625 -29.15625 22.328125 -29.6875 C 22.148438 -30.226562 21.960938 -30.78125 21.765625 -31.34375 C 21.660156 -31.59375 21.566406 -31.867188 21.484375 -32.171875 C 21.410156 -32.484375 21.320312 -32.769531 21.21875 -33.03125 Z M 21.21875 -33.03125 "/></g></g></g><g fill="#2ecc71" fill-opacity="1"><g transform="translate(327.349958, 370.849755)"><g><path d="M 13.171875 -27.65625 C 13.171875 -27.5625 13.171875 -27.472656 13.171875 -27.390625 C 13.171875 -27.316406 13.171875 -27.226562 13.171875 -27.125 C 13.171875 -25.132812 13.171875 -23.128906 13.171875 -21.109375 C 13.171875 -19.085938 13.148438 -17.082031 13.109375 -15.09375 C 13.109375 -13.8125 13.082031 -12.53125 13.03125 -11.25 C 12.976562 -9.976562 12.953125 -8.707031 12.953125 -7.4375 C 12.953125 -6.46875 12.960938 -5.507812 12.984375 -4.5625 C 13.015625 -3.613281 13.054688 -2.65625 13.109375 -1.6875 C 13.109375 -0.863281 12.800781 -0.300781 12.1875 0 C 11.625 0.257812 10.984375 0.4375 10.265625 0.53125 C 9.347656 0.582031 8.425781 0.582031 7.5 0.53125 C 6.582031 0.476562 5.664062 0.429688 4.75 0.390625 C 4.082031 0.390625 3.695312 0.03125 3.59375 -0.6875 C 3.550781 -0.894531 3.53125 -1.070312 3.53125 -1.21875 C 3.53125 -1.375 3.53125 -1.554688 3.53125 -1.765625 C 3.53125 -4.472656 3.539062 -7.21875 3.5625 -10 C 3.582031 -12.78125 3.59375 -15.550781 3.59375 -18.3125 C 3.550781 -19.738281 3.515625 -21.179688 3.484375 -22.640625 C 3.460938 -24.097656 3.425781 -25.539062 3.375 -26.96875 C 3.375 -29.78125 3.375 -32.585938 3.375 -35.390625 C 3.375 -38.203125 3.375 -41.015625 3.375 -43.828125 C 3.375 -44.847656 3.359375 -45.84375 3.328125 -46.8125 C 3.304688 -47.789062 3.296875 -48.765625 3.296875 -49.734375 C 3.242188 -49.984375 3.203125 -50.234375 3.171875 -50.484375 C 3.148438 -50.742188 3.140625 -50.976562 3.140625 -51.1875 C 3.085938 -51.382812 3.0625 -51.585938 3.0625 -51.796875 C 3.0625 -52.003906 3.0625 -52.207031 3.0625 -52.40625 C 3.0625 -52.914062 3.1875 -53.335938 3.4375 -53.671875 C 3.695312 -54.003906 4.007812 -54.273438 4.375 -54.484375 C 4.46875 -54.535156 4.644531 -54.5625 4.90625 -54.5625 C 5.3125 -54.5625 5.71875 -54.5625 6.125 -54.5625 C 6.539062 -54.5625 6.925781 -54.5625 7.28125 -54.5625 C 7.53125 -54.5625 7.78125 -54.5625 8.03125 -54.5625 C 8.289062 -54.5625 8.550781 -54.5625 8.8125 -54.5625 C 9.269531 -54.507812 9.726562 -54.46875 10.1875 -54.4375 C 10.644531 -54.414062 11.109375 -54.378906 11.578125 -54.328125 C 12.179688 -54.222656 12.613281 -53.863281 12.875 -53.25 C 13.125 -52.632812 13.414062 -52.035156 13.75 -51.453125 C 14.082031 -50.867188 14.351562 -50.269531 14.5625 -49.65625 C 15.019531 -48.476562 15.539062 -47.328125 16.125 -46.203125 C 16.71875 -45.078125 17.269531 -43.953125 17.78125 -42.828125 C 18.644531 -41.046875 19.535156 -39.269531 20.453125 -37.5 C 21.378906 -35.738281 22.328125 -33.96875 23.296875 -32.1875 C 23.597656 -31.625 23.890625 -31.046875 24.171875 -30.453125 C 24.453125 -29.867188 24.773438 -29.296875 25.140625 -28.734375 C 25.648438 -27.765625 26.179688 -26.804688 26.734375 -25.859375 C 27.296875 -24.910156 27.832031 -23.953125 28.34375 -22.984375 C 28.34375 -22.929688 28.421875 -22.851562 28.578125 -22.75 C 28.578125 -22.851562 28.585938 -22.941406 28.609375 -23.015625 C 28.640625 -23.097656 28.65625 -23.164062 28.65625 -23.21875 C 28.65625 -25.820312 28.65625 -28.4375 28.65625 -31.0625 C 28.65625 -33.695312 28.628906 -36.34375 28.578125 -39 C 28.578125 -40.28125 28.523438 -41.546875 28.421875 -42.796875 C 28.328125 -44.046875 28.253906 -45.3125 28.203125 -46.59375 C 28.148438 -47.664062 28.125 -48.75 28.125 -49.84375 C 28.125 -50.9375 28.125 -52.046875 28.125 -53.171875 C 28.125 -53.640625 28.40625 -54 28.96875 -54.25 C 29.53125 -54.457031 30.164062 -54.5625 30.875 -54.5625 C 31.539062 -54.507812 32.207031 -54.46875 32.875 -54.4375 C 33.539062 -54.414062 34.203125 -54.378906 34.859375 -54.328125 C 35.171875 -54.328125 35.488281 -54.328125 35.8125 -54.328125 C 36.144531 -54.328125 36.441406 -54.273438 36.703125 -54.171875 C 36.859375 -54.171875 37.035156 -54.117188 37.234375 -54.015625 C 37.597656 -53.867188 37.78125 -53.585938 37.78125 -53.171875 C 37.726562 -51.585938 37.765625 -49.988281 37.890625 -48.375 C 38.015625 -46.769531 38.101562 -45.148438 38.15625 -43.515625 C 38.3125 -39.234375 38.390625 -34.894531 38.390625 -30.5 C 38.441406 -27.988281 38.453125 -25.484375 38.421875 -22.984375 C 38.398438 -20.484375 38.414062 -17.984375 38.46875 -15.484375 C 38.46875 -13.898438 38.503906 -12.335938 38.578125 -10.796875 C 38.660156 -9.265625 38.722656 -7.707031 38.765625 -6.125 C 38.765625 -5.414062 38.765625 -4.675781 38.765625 -3.90625 C 38.765625 -3.144531 38.789062 -2.40625 38.84375 -1.6875 C 38.84375 -1.375 38.71875 -1.039062 38.46875 -0.6875 C 37.851562 -0.0195312 37.160156 0.3125 36.390625 0.3125 C 35.984375 0.257812 35.578125 0.257812 35.171875 0.3125 C 34.765625 0.363281 34.351562 0.410156 33.9375 0.453125 C 33.425781 0.453125 32.925781 0.460938 32.4375 0.484375 C 31.957031 0.515625 31.460938 0.53125 30.953125 0.53125 C 30.753906 0.53125 30.523438 0.457031 30.265625 0.3125 C 30.160156 0.15625 30.03125 0 29.875 -0.15625 C 29.726562 -0.3125 29.601562 -0.460938 29.5 -0.609375 C 28.988281 -1.484375 28.476562 -2.316406 27.96875 -3.109375 C 27.457031 -3.898438 26.945312 -4.703125 26.4375 -5.515625 C 26.226562 -5.972656 26.007812 -6.429688 25.78125 -6.890625 C 25.550781 -7.347656 25.3125 -7.835938 25.0625 -8.359375 C 24.695312 -9.117188 24.257812 -9.851562 23.75 -10.5625 C 23.238281 -11.28125 22.726562 -12.023438 22.21875 -12.796875 C 21.757812 -13.515625 21.3125 -14.21875 20.875 -14.90625 C 20.445312 -15.59375 20.003906 -16.296875 19.546875 -17.015625 C 18.929688 -18.035156 18.316406 -19.054688 17.703125 -20.078125 C 17.085938 -21.097656 16.5 -22.117188 15.9375 -23.140625 C 15.53125 -23.859375 15.082031 -24.570312 14.59375 -25.28125 C 14.113281 -26 13.71875 -26.765625 13.40625 -27.578125 C 13.40625 -27.628906 13.390625 -27.65625 13.359375 -27.65625 C 13.335938 -27.65625 13.328125 -27.679688 13.328125 -27.734375 C 13.273438 -27.734375 13.25 -27.71875 13.25 -27.6875 C 13.25 -27.664062 13.222656 -27.65625 13.171875 -27.65625 Z M 13.171875 -27.65625 "/></g></g></g></svg>