<svg xmlns="http://www.w3.org/2000/svg" xmlns:xlink="http://www.w3.org/1999/xlink" width="500" zoomAndPan="magnify" viewBox="0 0 375 374.999991" height="500" preserveAspectRatio="xMidYMid meet" version="1.0"><defs><g/><clipPath id="50bbc99bb9"><path d="M 63 1.445312 L 307 1.445312 L 307 274 L 63 274 Z M 63 1.445312 " clip-rule="nonzero"/></clipPath></defs><g clip-path="url(#50bbc99bb9)"><path fill="#fafafa" d="M 200.546875 58.34375 C 200.085938 43.761719 205.417969 29.035156 216.546875 17.90625 C 227.671875 6.773438 242.402344 1.449219 256.980469 1.90625 C 257.441406 16.488281 252.113281 31.214844 240.984375 42.34375 C 229.855469 53.472656 215.128906 58.804688 200.546875 58.34375 Z M 179.417969 218.703125 C 148.550781 210.199219 117.511719 203.789062 84.9375 216.515625 C 116.402344 194.90625 161.738281 209.90625 179.417969 218.703125 Z M 89.078125 76.132812 C 57.335938 101.609375 57.046875 166.25 75.996094 211.3125 C 113.734375 185.394531 168.097656 203.386719 189.300781 213.933594 C 173.546875 198.84375 175.402344 188.203125 182.671875 168.242188 C 185.402344 160.746094 190.128906 152.285156 186.574219 145.953125 C 179.917969 146.144531 177.449219 150.03125 178.085938 150.765625 C 183.824219 157.332031 173.621094 162.839844 165.523438 162.113281 C 158.214844 161.460938 152.632812 156.828125 149.023438 151.804688 C 141.949219 141.96875 141.390625 127.875 144 123.484375 C 147.992188 116.769531 162.011719 106.710938 175.027344 107.398438 C 229.703125 110.289062 230.144531 231.238281 217.644531 258.46875 C 213.6875 263.769531 208.378906 268.277344 202.203125 271.988281 C 204.710938 272.523438 207.113281 272.960938 209.160156 273.148438 C 225.246094 274.652344 240.972656 268.871094 254.066406 260.515625 C 257.332031 258.425781 259.464844 256.886719 262.257812 254.609375 C 270.972656 247.496094 276.675781 241.492188 283.355469 231.546875 C 312.3125 188.382812 317.949219 105.765625 281.023438 76.132812 C 243.519531 46.039062 214.261719 67.378906 194.46875 74.351562 L 194.46875 26.972656 C 194.46875 21.796875 190.230469 17.558594 185.050781 17.558594 C 179.871094 17.558594 175.636719 21.796875 175.636719 26.972656 L 175.636719 74.363281 C 155.886719 67.402344 126.597656 46.027344 89.078125 76.132812 Z M 296.21875 160.214844 C 292.074219 128.410156 285.660156 97.230469 258.574219 71.792969 C 294.488281 92.875 297.953125 140.527344 296.21875 160.214844 " fill-opacity="1" fill-rule="evenodd"/></g><g fill="#fafafa" fill-opacity="1"><g transform="translate(12.756003, 356.350201)"><g><path d="M 12.671875 -26.59375 C 12.671875 -26.488281 12.671875 -26.398438 12.671875 -26.328125 C 12.671875 -26.253906 12.671875 -26.171875 12.671875 -26.078125 C 12.671875 -24.160156 12.671875 -22.234375 12.671875 -20.296875 C 12.671875 -18.359375 12.644531 -16.429688 12.59375 -14.515625 C 12.59375 -13.285156 12.566406 -12.054688 12.515625 -10.828125 C 12.472656 -9.597656 12.453125 -8.367188 12.453125 -7.140625 C 12.453125 -6.210938 12.460938 -5.289062 12.484375 -4.375 C 12.503906 -3.46875 12.539062 -2.550781 12.59375 -1.625 C 12.59375 -0.832031 12.300781 -0.289062 11.71875 0 C 11.175781 0.25 10.5625 0.421875 9.875 0.515625 C 8.988281 0.566406 8.101562 0.566406 7.21875 0.515625 C 6.332031 0.460938 5.445312 0.414062 4.5625 0.375 C 3.925781 0.375 3.5625 0.03125 3.46875 -0.65625 C 3.414062 -0.851562 3.390625 -1.023438 3.390625 -1.171875 C 3.390625 -1.328125 3.390625 -1.5 3.390625 -1.6875 C 3.390625 -4.289062 3.398438 -6.929688 3.421875 -9.609375 C 3.453125 -12.285156 3.46875 -14.953125 3.46875 -17.609375 C 3.414062 -18.984375 3.375 -20.367188 3.34375 -21.765625 C 3.320312 -23.160156 3.285156 -24.546875 3.234375 -25.921875 C 3.234375 -28.628906 3.234375 -31.332031 3.234375 -34.03125 C 3.234375 -36.726562 3.234375 -39.425781 3.234375 -42.125 C 3.234375 -43.113281 3.222656 -44.070312 3.203125 -45 C 3.179688 -45.9375 3.171875 -46.867188 3.171875 -47.796875 C 3.117188 -48.046875 3.078125 -48.289062 3.046875 -48.53125 C 3.023438 -48.78125 3.015625 -49.003906 3.015625 -49.203125 C 2.972656 -49.398438 2.953125 -49.597656 2.953125 -49.796875 C 2.953125 -49.992188 2.953125 -50.1875 2.953125 -50.375 C 2.953125 -50.875 3.070312 -51.28125 3.3125 -51.59375 C 3.5625 -51.914062 3.859375 -52.175781 4.203125 -52.375 C 4.296875 -52.414062 4.46875 -52.4375 4.71875 -52.4375 C 5.101562 -52.4375 5.492188 -52.4375 5.890625 -52.4375 C 6.285156 -52.4375 6.65625 -52.4375 7 -52.4375 C 7.238281 -52.4375 7.484375 -52.4375 7.734375 -52.4375 C 7.984375 -52.4375 8.226562 -52.4375 8.46875 -52.4375 C 8.914062 -52.394531 9.359375 -52.359375 9.796875 -52.328125 C 10.234375 -52.304688 10.675781 -52.269531 11.125 -52.21875 C 11.707031 -52.125 12.125 -51.78125 12.375 -51.1875 C 12.625 -50.601562 12.90625 -50.023438 13.21875 -49.453125 C 13.539062 -48.890625 13.800781 -48.316406 14 -47.734375 C 14.4375 -46.597656 14.9375 -45.488281 15.5 -44.40625 C 16.070312 -43.332031 16.601562 -42.253906 17.09375 -41.171875 C 17.925781 -39.453125 18.78125 -37.742188 19.65625 -36.046875 C 20.539062 -34.359375 21.453125 -32.65625 22.390625 -30.9375 C 22.679688 -30.394531 22.960938 -29.84375 23.234375 -29.28125 C 23.503906 -28.71875 23.8125 -28.164062 24.15625 -27.625 C 24.644531 -26.6875 25.160156 -25.765625 25.703125 -24.859375 C 26.242188 -23.953125 26.757812 -23.03125 27.25 -22.09375 C 27.25 -22.039062 27.320312 -21.96875 27.46875 -21.875 C 27.46875 -21.96875 27.476562 -22.050781 27.5 -22.125 C 27.53125 -22.207031 27.546875 -22.269531 27.546875 -22.3125 C 27.546875 -24.820312 27.546875 -27.335938 27.546875 -29.859375 C 27.546875 -32.390625 27.519531 -34.929688 27.46875 -37.484375 C 27.46875 -38.710938 27.414062 -39.925781 27.3125 -41.125 C 27.21875 -42.332031 27.148438 -43.550781 27.109375 -44.78125 C 27.054688 -45.8125 27.03125 -46.851562 27.03125 -47.90625 C 27.03125 -48.96875 27.03125 -50.039062 27.03125 -51.125 C 27.03125 -51.5625 27.300781 -51.90625 27.84375 -52.15625 C 28.382812 -52.34375 29 -52.4375 29.6875 -52.4375 C 30.320312 -52.394531 30.957031 -52.359375 31.59375 -52.328125 C 32.238281 -52.304688 32.878906 -52.269531 33.515625 -52.21875 C 33.804688 -52.21875 34.109375 -52.21875 34.421875 -52.21875 C 34.742188 -52.21875 35.03125 -52.171875 35.28125 -52.078125 C 35.425781 -52.078125 35.597656 -52.023438 35.796875 -51.921875 C 36.140625 -51.773438 36.3125 -51.507812 36.3125 -51.125 C 36.257812 -49.59375 36.296875 -48.050781 36.421875 -46.5 C 36.546875 -44.957031 36.632812 -43.40625 36.6875 -41.84375 C 36.832031 -37.71875 36.90625 -33.539062 36.90625 -29.3125 C 36.945312 -26.90625 36.957031 -24.5 36.9375 -22.09375 C 36.914062 -19.6875 36.925781 -17.28125 36.96875 -14.875 C 36.96875 -13.351562 37.003906 -11.851562 37.078125 -10.375 C 37.160156 -8.90625 37.222656 -7.410156 37.265625 -5.890625 C 37.265625 -5.203125 37.265625 -4.488281 37.265625 -3.75 C 37.265625 -3.019531 37.289062 -2.3125 37.34375 -1.625 C 37.34375 -1.320312 37.21875 -1 36.96875 -0.65625 C 36.382812 -0.0195312 35.722656 0.296875 34.984375 0.296875 C 34.585938 0.242188 34.191406 0.242188 33.796875 0.296875 C 33.410156 0.347656 33.019531 0.394531 32.625 0.4375 C 32.132812 0.4375 31.65625 0.445312 31.1875 0.46875 C 30.726562 0.5 30.25 0.515625 29.75 0.515625 C 29.5625 0.515625 29.34375 0.441406 29.09375 0.296875 C 29 0.148438 28.875 0.00390625 28.71875 -0.140625 C 28.570312 -0.296875 28.453125 -0.445312 28.359375 -0.59375 C 27.867188 -1.425781 27.375 -2.222656 26.875 -2.984375 C 26.382812 -3.742188 25.894531 -4.515625 25.40625 -5.296875 C 25.207031 -5.742188 25 -6.1875 24.78125 -6.625 C 24.5625 -7.070312 24.328125 -7.539062 24.078125 -8.03125 C 23.734375 -8.769531 23.316406 -9.484375 22.828125 -10.171875 C 22.335938 -10.859375 21.847656 -11.566406 21.359375 -12.296875 C 20.921875 -12.984375 20.488281 -13.660156 20.0625 -14.328125 C 19.644531 -14.992188 19.21875 -15.671875 18.78125 -16.359375 C 18.195312 -17.335938 17.609375 -18.316406 17.015625 -19.296875 C 16.421875 -20.273438 15.859375 -21.257812 15.328125 -22.25 C 14.929688 -22.9375 14.5 -23.625 14.03125 -24.3125 C 13.5625 -25 13.179688 -25.734375 12.890625 -26.515625 C 12.890625 -26.566406 12.875 -26.59375 12.84375 -26.59375 C 12.820312 -26.59375 12.8125 -26.613281 12.8125 -26.65625 C 12.769531 -26.65625 12.75 -26.644531 12.75 -26.625 C 12.75 -26.601562 12.722656 -26.59375 12.671875 -26.59375 Z M 12.671875 -26.59375 "/></g></g></g><g fill="#fafafa" fill-opacity="1"><g transform="translate(53.040673, 356.350201)"><g><path d="M 3.09375 -34.625 C 3.1875 -36.875 3.242188 -39.113281 3.265625 -41.34375 C 3.296875 -43.582031 3.335938 -45.832031 3.390625 -48.09375 C 3.390625 -48.539062 3.410156 -48.992188 3.453125 -49.453125 C 3.503906 -49.921875 3.53125 -50.398438 3.53125 -50.890625 C 3.582031 -51.679688 4.023438 -52.023438 4.859375 -51.921875 C 5.203125 -51.921875 5.554688 -51.921875 5.921875 -51.921875 C 6.296875 -51.921875 6.65625 -51.945312 7 -52 C 7.34375 -52 7.671875 -52 7.984375 -52 C 8.304688 -52 8.640625 -52 8.984375 -52 C 9.429688 -52 9.863281 -52 10.28125 -52 C 10.695312 -52 11.125 -52 11.5625 -52 C 11.851562 -52 12.078125 -51.800781 12.234375 -51.40625 C 12.273438 -51.21875 12.304688 -51 12.328125 -50.75 C 12.359375 -50.5 12.375 -50.253906 12.375 -50.015625 C 12.375 -48.734375 12.375 -47.441406 12.375 -46.140625 C 12.375 -44.835938 12.347656 -43.550781 12.296875 -42.28125 C 12.296875 -40.3125 12.222656 -38.320312 12.078125 -36.3125 C 12.023438 -35.476562 11.972656 -34.628906 11.921875 -33.765625 C 11.878906 -32.910156 11.832031 -32.066406 11.78125 -31.234375 C 11.738281 -30.148438 11.703125 -29.078125 11.671875 -28.015625 C 11.648438 -26.960938 11.640625 -25.875 11.640625 -24.75 C 11.640625 -23.957031 11.648438 -23.144531 11.671875 -22.3125 C 11.703125 -21.476562 11.71875 -20.644531 11.71875 -19.8125 C 11.757812 -17.550781 12.101562 -15.269531 12.75 -12.96875 C 12.9375 -12.175781 13.300781 -11.414062 13.84375 -10.6875 C 14.488281 -9.800781 15.328125 -9.207031 16.359375 -8.90625 C 16.503906 -8.863281 16.660156 -8.828125 16.828125 -8.796875 C 17.003906 -8.773438 17.164062 -8.71875 17.3125 -8.625 C 17.851562 -8.425781 18.367188 -8.335938 18.859375 -8.359375 C 19.347656 -8.378906 19.835938 -8.46875 20.328125 -8.625 C 20.523438 -8.664062 20.722656 -8.710938 20.921875 -8.765625 C 21.117188 -8.816406 21.3125 -8.890625 21.5 -8.984375 C 22.09375 -9.273438 22.570312 -9.675781 22.9375 -10.1875 C 23.3125 -10.707031 23.597656 -11.265625 23.796875 -11.859375 C 24.285156 -13.378906 24.648438 -14.972656 24.890625 -16.640625 C 25.085938 -17.921875 25.257812 -19.175781 25.40625 -20.40625 C 25.550781 -21.632812 25.625 -22.859375 25.625 -24.078125 C 25.625 -24.617188 25.660156 -25.171875 25.734375 -25.734375 C 25.816406 -26.304688 25.878906 -26.863281 25.921875 -27.40625 C 25.972656 -27.988281 26 -28.585938 26 -29.203125 C 26 -29.816406 26 -30.421875 26 -31.015625 C 26.050781 -33.460938 26.078125 -35.898438 26.078125 -38.328125 C 26.078125 -40.765625 26.078125 -43.1875 26.078125 -45.59375 C 26.078125 -46.425781 26.085938 -47.234375 26.109375 -48.015625 C 26.128906 -48.804688 26.164062 -49.59375 26.21875 -50.375 C 26.269531 -51.3125 26.710938 -51.804688 27.546875 -51.859375 C 28.523438 -51.898438 29.492188 -51.945312 30.453125 -52 C 31.410156 -52.050781 32.359375 -52.101562 33.296875 -52.15625 C 33.390625 -52.15625 33.472656 -52.15625 33.546875 -52.15625 C 33.617188 -52.15625 33.707031 -52.15625 33.8125 -52.15625 C 34.539062 -52.15625 34.90625 -51.8125 34.90625 -51.125 C 34.90625 -50.925781 34.90625 -50.738281 34.90625 -50.5625 C 34.90625 -50.394531 34.90625 -50.210938 34.90625 -50.015625 C 34.863281 -47.359375 34.828125 -44.71875 34.796875 -42.09375 C 34.773438 -39.46875 34.765625 -36.828125 34.765625 -34.171875 C 34.710938 -32.796875 34.6875 -31.445312 34.6875 -30.125 C 34.6875 -28.800781 34.664062 -27.453125 34.625 -26.078125 C 34.570312 -24.253906 34.472656 -22.421875 34.328125 -20.578125 C 34.179688 -18.742188 33.957031 -16.894531 33.65625 -15.03125 C 33.269531 -12.769531 32.753906 -10.582031 32.109375 -8.46875 C 31.867188 -7.632812 31.550781 -6.820312 31.15625 -6.03125 C 30.757812 -5.25 30.289062 -4.488281 29.75 -3.75 C 29.363281 -3.164062 28.898438 -2.664062 28.359375 -2.25 C 27.816406 -1.832031 27.25 -1.425781 26.65625 -1.03125 C 25.78125 -0.539062 24.847656 -0.0976562 23.859375 0.296875 C 22.878906 0.691406 21.875 0.9375 20.84375 1.03125 C 20.15625 1.125 19.453125 1.144531 18.734375 1.09375 C 18.023438 1.050781 17.328125 1.003906 16.640625 0.953125 C 16.296875 0.910156 15.960938 0.863281 15.640625 0.8125 C 15.328125 0.757812 15.023438 0.707031 14.734375 0.65625 C 12.523438 0.0703125 10.609375 -1.050781 8.984375 -2.71875 C 8.640625 -3.113281 8.304688 -3.507812 7.984375 -3.90625 C 7.671875 -4.300781 7.390625 -4.691406 7.140625 -5.078125 C 5.035156 -8.472656 3.785156 -12.179688 3.390625 -16.203125 C 3.335938 -16.890625 3.285156 -17.539062 3.234375 -18.15625 C 3.191406 -18.769531 3.144531 -19.394531 3.09375 -20.03125 C 3.039062 -20.863281 3.003906 -21.722656 2.984375 -22.609375 C 2.960938 -23.492188 2.972656 -24.351562 3.015625 -25.1875 C 3.015625 -26.757812 3.023438 -28.332031 3.046875 -29.90625 C 3.078125 -31.476562 3.09375 -33.050781 3.09375 -34.625 Z M 3.09375 -34.625 "/></g></g></g><g fill="#fafafa" fill-opacity="1"><g transform="translate(90.895014, 356.350201)"><g><path d="M 19.8125 -23.640625 C 19.8125 -20.941406 19.796875 -18.265625 19.765625 -15.609375 C 19.742188 -12.960938 19.710938 -10.289062 19.671875 -7.59375 C 19.671875 -6.40625 19.644531 -5.222656 19.59375 -4.046875 C 19.539062 -2.867188 19.488281 -1.691406 19.4375 -0.515625 C 19.4375 -0.078125 19.171875 0.238281 18.640625 0.4375 C 17.703125 0.632812 16.78125 0.757812 15.875 0.8125 C 14.96875 0.863281 14.019531 0.8125 13.03125 0.65625 C 12.84375 0.613281 12.632812 0.59375 12.40625 0.59375 C 12.1875 0.59375 11.976562 0.566406 11.78125 0.515625 C 10.851562 0.367188 10.390625 -0.144531 10.390625 -1.03125 C 10.390625 -2.3125 10.390625 -3.578125 10.390625 -4.828125 C 10.390625 -6.078125 10.390625 -7.316406 10.390625 -8.546875 C 10.390625 -10.554688 10.363281 -12.554688 10.3125 -14.546875 C 10.257812 -16.535156 10.257812 -18.535156 10.3125 -20.546875 C 10.3125 -22.367188 10.347656 -24.195312 10.421875 -26.03125 C 10.492188 -27.875 10.582031 -29.707031 10.6875 -31.53125 C 10.78125 -32.800781 10.828125 -34.070312 10.828125 -35.34375 C 10.828125 -36.625 10.828125 -37.878906 10.828125 -39.109375 C 10.828125 -39.648438 10.828125 -40.15625 10.828125 -40.625 C 10.828125 -41.09375 10.800781 -41.570312 10.75 -42.0625 C 10.75 -42.300781 10.738281 -42.429688 10.71875 -42.453125 C 10.695312 -42.484375 10.5625 -42.5 10.3125 -42.5 C 9.082031 -42.5 7.851562 -42.5 6.625 -42.5 C 5.394531 -42.5 4.144531 -42.453125 2.875 -42.359375 C 2.769531 -42.359375 2.65625 -42.359375 2.53125 -42.359375 C 2.414062 -42.359375 2.304688 -42.359375 2.203125 -42.359375 C 1.910156 -42.359375 1.71875 -42.550781 1.625 -42.9375 C 1.570312 -43.238281 1.53125 -43.535156 1.5 -43.828125 C 1.476562 -44.117188 1.46875 -44.4375 1.46875 -44.78125 C 1.46875 -45.863281 1.492188 -46.929688 1.546875 -47.984375 C 1.597656 -49.046875 1.671875 -50.113281 1.765625 -51.1875 C 1.816406 -51.78125 2.132812 -52.101562 2.71875 -52.15625 C 3.601562 -52.195312 4.5 -52.226562 5.40625 -52.25 C 6.320312 -52.28125 7.222656 -52.269531 8.109375 -52.21875 C 10.859375 -52.019531 13.601562 -51.910156 16.34375 -51.890625 C 19.09375 -51.867188 21.84375 -51.878906 24.59375 -51.921875 C 25.28125 -51.921875 25.957031 -51.929688 26.625 -51.953125 C 27.289062 -51.984375 27.941406 -52 28.578125 -52 C 28.972656 -52 29.226562 -51.9375 29.34375 -51.8125 C 29.46875 -51.695312 29.53125 -51.441406 29.53125 -51.046875 C 29.582031 -50.066406 29.570312 -49.070312 29.5 -48.0625 C 29.425781 -47.050781 29.363281 -46.03125 29.3125 -45 C 29.3125 -44.800781 29.3125 -44.566406 29.3125 -44.296875 C 29.3125 -44.035156 29.3125 -43.78125 29.3125 -43.53125 C 29.257812 -42.9375 28.96875 -42.617188 28.4375 -42.578125 C 28.382812 -42.578125 28.320312 -42.578125 28.25 -42.578125 C 28.175781 -42.578125 28.085938 -42.578125 27.984375 -42.578125 C 26.953125 -42.671875 25.921875 -42.691406 24.890625 -42.640625 C 23.859375 -42.597656 22.851562 -42.550781 21.875 -42.5 C 21.675781 -42.5 21.476562 -42.5 21.28125 -42.5 C 21.082031 -42.5 20.890625 -42.5 20.703125 -42.5 C 20.453125 -42.5 20.328125 -42.375 20.328125 -42.125 C 20.328125 -42.082031 20.328125 -42 20.328125 -41.875 C 20.328125 -41.75 20.328125 -41.640625 20.328125 -41.546875 C 20.328125 -40.460938 20.335938 -39.367188 20.359375 -38.265625 C 20.390625 -37.160156 20.378906 -36.066406 20.328125 -34.984375 C 20.273438 -33.171875 20.222656 -31.378906 20.171875 -29.609375 C 20.128906 -27.835938 20.054688 -26.070312 19.953125 -24.3125 C 19.910156 -24.15625 19.890625 -23.929688 19.890625 -23.640625 C 19.890625 -23.640625 19.863281 -23.640625 19.8125 -23.640625 Z M 19.8125 -23.640625 "/></g></g></g><g fill="#fafafa" fill-opacity="1"><g transform="translate(121.973867, 356.350201)"><g><path d="M 14.140625 -7.078125 C 14.085938 -5.992188 14.035156 -4.898438 13.984375 -3.796875 C 13.941406 -2.691406 13.894531 -1.597656 13.84375 -0.515625 C 13.800781 0.515625 13.285156 1.03125 12.296875 1.03125 C 11.753906 1.03125 11.210938 1.03125 10.671875 1.03125 C 10.140625 1.03125 9.601562 1.03125 9.0625 1.03125 C 8.519531 0.976562 7.976562 0.925781 7.4375 0.875 C 6.894531 0.832031 6.351562 0.8125 5.8125 0.8125 C 5.625 0.757812 5.414062 0.734375 5.1875 0.734375 C 4.96875 0.734375 4.738281 0.734375 4.5 0.734375 C 3.613281 0.734375 3.191406 0.289062 3.234375 -0.59375 C 3.335938 -3.289062 3.425781 -5.988281 3.5 -8.6875 C 3.570312 -11.394531 3.582031 -14.097656 3.53125 -16.796875 C 3.53125 -19.691406 3.53125 -22.570312 3.53125 -25.4375 C 3.53125 -28.3125 3.53125 -31.175781 3.53125 -34.03125 C 3.488281 -34.957031 3.46875 -35.890625 3.46875 -36.828125 C 3.46875 -37.765625 3.414062 -38.695312 3.3125 -39.625 C 3.3125 -40.21875 3.273438 -40.804688 3.203125 -41.390625 C 3.128906 -41.984375 3.066406 -42.570312 3.015625 -43.15625 C 3.015625 -43.550781 3.003906 -43.957031 2.984375 -44.375 C 2.960938 -44.789062 2.972656 -45.195312 3.015625 -45.59375 C 3.066406 -46.425781 3.101562 -47.25 3.125 -48.0625 C 3.15625 -48.875 3.191406 -49.695312 3.234375 -50.53125 C 3.285156 -51.507812 3.851562 -52.023438 4.9375 -52.078125 C 5.675781 -52.128906 6.410156 -52.140625 7.140625 -52.109375 C 7.878906 -52.085938 8.59375 -52.078125 9.28125 -52.078125 C 10.21875 -52.078125 11.125 -52.078125 12 -52.078125 C 12.882812 -52.078125 13.769531 -52.050781 14.65625 -52 C 15.832031 -51.945312 17.007812 -51.910156 18.1875 -51.890625 C 19.363281 -51.867188 20.566406 -51.832031 21.796875 -51.78125 C 22.046875 -51.78125 22.28125 -51.78125 22.5 -51.78125 C 22.71875 -51.78125 22.925781 -51.78125 23.125 -51.78125 C 23.570312 -51.78125 24.015625 -51.753906 24.453125 -51.703125 C 24.890625 -51.660156 25.332031 -51.539062 25.78125 -51.34375 C 25.925781 -51.289062 26.070312 -51.25 26.21875 -51.21875 C 26.363281 -51.195312 26.507812 -51.164062 26.65625 -51.125 C 28.570312 -50.582031 30.117188 -49.550781 31.296875 -48.03125 C 31.398438 -47.875 31.507812 -47.734375 31.625 -47.609375 C 31.75 -47.492188 31.835938 -47.382812 31.890625 -47.28125 C 32.035156 -47.09375 32.171875 -46.910156 32.296875 -46.734375 C 32.421875 -46.566406 32.53125 -46.382812 32.625 -46.1875 C 33.3125 -44.757812 33.863281 -43.285156 34.28125 -41.765625 C 34.695312 -40.242188 34.957031 -38.671875 35.0625 -37.046875 C 35.207031 -35.273438 35.28125 -33.507812 35.28125 -31.75 C 35.332031 -30.320312 35.1875 -28.929688 34.84375 -27.578125 C 34.5 -26.234375 34.054688 -24.921875 33.515625 -23.640625 C 33.265625 -23.003906 32.929688 -22.378906 32.515625 -21.765625 C 32.097656 -21.148438 31.671875 -20.546875 31.234375 -19.953125 C 31.035156 -19.660156 30.800781 -19.40625 30.53125 -19.1875 C 30.257812 -18.96875 30 -18.734375 29.75 -18.484375 C 29.507812 -18.335938 29.460938 -18.144531 29.609375 -17.90625 C 30.003906 -17.164062 30.394531 -16.425781 30.78125 -15.6875 C 31.175781 -14.945312 31.546875 -14.210938 31.890625 -13.484375 C 32.085938 -13.179688 32.25 -12.867188 32.375 -12.546875 C 32.5 -12.234375 32.632812 -11.90625 32.78125 -11.5625 C 33.164062 -10.675781 33.582031 -9.769531 34.03125 -8.84375 C 34.320312 -8.050781 34.613281 -7.285156 34.90625 -6.546875 C 35.207031 -5.816406 35.503906 -5.054688 35.796875 -4.265625 C 35.890625 -4.078125 36 -3.894531 36.125 -3.71875 C 36.25 -3.550781 36.335938 -3.34375 36.390625 -3.09375 C 36.734375 -2.457031 37.003906 -1.84375 37.203125 -1.25 C 37.296875 -0.851562 37.21875 -0.472656 36.96875 -0.109375 C 36.726562 0.253906 36.410156 0.488281 36.015625 0.59375 C 35.816406 0.632812 35.617188 0.65625 35.421875 0.65625 C 35.234375 0.65625 35.015625 0.679688 34.765625 0.734375 C 33.679688 0.734375 32.613281 0.734375 31.5625 0.734375 C 30.507812 0.734375 29.441406 0.734375 28.359375 0.734375 C 28.160156 0.734375 27.9375 0.734375 27.6875 0.734375 C 27.445312 0.734375 27.203125 0.734375 26.953125 0.734375 C 26.566406 0.835938 26.296875 0.691406 26.140625 0.296875 C 26.140625 0.296875 26.09375 0.242188 26 0.140625 C 25.507812 -0.785156 24.992188 -1.703125 24.453125 -2.609375 C 23.910156 -3.523438 23.394531 -4.445312 22.90625 -5.375 C 22.414062 -6.40625 21.9375 -7.4375 21.46875 -8.46875 C 21 -9.5 20.546875 -10.503906 20.109375 -11.484375 C 19.910156 -11.984375 19.6875 -12.453125 19.4375 -12.890625 C 19.195312 -13.328125 18.953125 -13.769531 18.703125 -14.21875 C 18.660156 -14.507812 18.441406 -14.65625 18.046875 -14.65625 C 17.847656 -14.601562 17.613281 -14.566406 17.34375 -14.546875 C 17.070312 -14.523438 16.816406 -14.515625 16.578125 -14.515625 C 16.234375 -14.460938 15.910156 -14.421875 15.609375 -14.390625 C 15.316406 -14.367188 15 -14.335938 14.65625 -14.296875 C 14.457031 -14.296875 14.332031 -14.269531 14.28125 -14.21875 C 14.238281 -14.164062 14.21875 -14.019531 14.21875 -13.78125 C 14.164062 -12.894531 14.140625 -11.992188 14.140625 -11.078125 C 14.140625 -10.171875 14.140625 -9.253906 14.140625 -8.328125 C 14.140625 -8.128906 14.140625 -7.929688 14.140625 -7.734375 C 14.140625 -7.535156 14.140625 -7.316406 14.140625 -7.078125 Z M 14.296875 -33.078125 C 14.335938 -33.078125 14.359375 -33.078125 14.359375 -33.078125 C 14.359375 -31.847656 14.367188 -30.617188 14.390625 -29.390625 C 14.421875 -28.160156 14.4375 -26.929688 14.4375 -25.703125 C 14.4375 -25.503906 14.421875 -25.304688 14.390625 -25.109375 C 14.367188 -24.921875 14.382812 -24.703125 14.4375 -24.453125 C 14.4375 -24.160156 14.609375 -24.015625 14.953125 -24.015625 C 15.585938 -24.015625 16.222656 -24.023438 16.859375 -24.046875 C 17.503906 -24.066406 18.117188 -24.128906 18.703125 -24.234375 C 19.640625 -24.378906 20.5 -24.597656 21.28125 -24.890625 C 21.96875 -25.085938 22.507812 -25.582031 22.90625 -26.375 C 22.957031 -26.71875 23.101562 -27.035156 23.34375 -27.328125 C 23.59375 -27.910156 23.835938 -28.519531 24.078125 -29.15625 C 24.328125 -29.800781 24.476562 -30.46875 24.53125 -31.15625 C 24.675781 -32.132812 24.75 -33.101562 24.75 -34.0625 C 24.75 -35.019531 24.722656 -35.96875 24.671875 -36.90625 C 24.671875 -37.976562 24.398438 -39.054688 23.859375 -40.140625 C 23.660156 -40.679688 23.296875 -41.078125 22.765625 -41.328125 C 22.265625 -41.566406 21.71875 -41.757812 21.125 -41.90625 C 20.539062 -42.050781 19.957031 -42.125 19.375 -42.125 C 18.582031 -42.125 17.804688 -42.113281 17.046875 -42.09375 C 16.285156 -42.070312 15.515625 -42.0625 14.734375 -42.0625 C 14.484375 -42.0625 14.332031 -42.035156 14.28125 -41.984375 C 14.238281 -41.929688 14.21875 -41.785156 14.21875 -41.546875 C 14.21875 -40.171875 14.226562 -38.769531 14.25 -37.34375 C 14.28125 -35.914062 14.296875 -34.492188 14.296875 -33.078125 Z M 14.296875 -33.078125 "/></g></g></g><g fill="#fafafa" fill-opacity="1"><g transform="translate(162.184887, 356.350201)"><g><path d="M 38.8125 -27.40625 C 38.8125 -27.15625 38.8125 -26.894531 38.8125 -26.625 C 38.8125 -26.351562 38.8125 -26.097656 38.8125 -25.859375 C 38.769531 -25.515625 38.75 -25.144531 38.75 -24.75 C 38.75 -24.351562 38.695312 -23.957031 38.59375 -23.5625 C 38.5 -23.21875 38.453125 -22.882812 38.453125 -22.5625 C 38.453125 -22.25 38.425781 -21.921875 38.375 -21.578125 C 38.226562 -20.253906 37.984375 -18.96875 37.640625 -17.71875 C 37.296875 -16.46875 36.925781 -15.203125 36.53125 -13.921875 C 36.238281 -12.941406 35.894531 -11.984375 35.5 -11.046875 C 35.101562 -10.117188 34.660156 -9.1875 34.171875 -8.25 C 33.929688 -7.707031 33.640625 -7.175781 33.296875 -6.65625 C 32.953125 -6.144531 32.609375 -5.617188 32.265625 -5.078125 C 31.867188 -4.441406 31.390625 -3.878906 30.828125 -3.390625 C 30.265625 -2.898438 29.660156 -2.429688 29.015625 -1.984375 C 28.816406 -1.890625 28.628906 -1.769531 28.453125 -1.625 C 28.285156 -1.476562 28.109375 -1.328125 27.921875 -1.171875 C 27.765625 -1.078125 27.613281 -0.976562 27.46875 -0.875 C 27.320312 -0.78125 27.175781 -0.6875 27.03125 -0.59375 C 26.738281 -0.488281 26.457031 -0.375 26.1875 -0.25 C 25.914062 -0.132812 25.632812 -0.0234375 25.34375 0.078125 C 24.550781 0.460938 23.738281 0.691406 22.90625 0.765625 C 22.070312 0.847656 21.238281 0.890625 20.40625 0.890625 C 19.414062 0.835938 18.429688 0.75 17.453125 0.625 C 16.472656 0.5 15.492188 0.289062 14.515625 0 C 13.378906 -0.289062 12.273438 -0.851562 11.203125 -1.6875 C 11.046875 -1.789062 10.894531 -1.914062 10.75 -2.0625 C 10.601562 -2.207031 10.429688 -2.332031 10.234375 -2.4375 C 10.085938 -2.582031 9.925781 -2.726562 9.75 -2.875 C 9.582031 -3.019531 9.425781 -3.164062 9.28125 -3.3125 C 7.363281 -5.476562 5.914062 -7.9375 4.9375 -10.6875 C 4.6875 -11.375 4.453125 -12.070312 4.234375 -12.78125 C 4.015625 -13.488281 3.851562 -14.238281 3.75 -15.03125 C 3.707031 -15.570312 3.671875 -16.109375 3.640625 -16.640625 C 3.617188 -17.179688 3.5625 -17.722656 3.46875 -18.265625 C 3.46875 -18.410156 3.453125 -18.554688 3.421875 -18.703125 C 3.398438 -18.847656 3.390625 -19 3.390625 -19.15625 C 3.191406 -19.988281 3.066406 -20.832031 3.015625 -21.6875 C 2.972656 -22.550781 2.972656 -23.398438 3.015625 -24.234375 C 3.066406 -25.015625 3.113281 -25.785156 3.15625 -26.546875 C 3.207031 -27.304688 3.257812 -28.082031 3.3125 -28.875 C 3.363281 -29.414062 3.410156 -29.976562 3.453125 -30.5625 C 3.503906 -31.15625 3.554688 -31.742188 3.609375 -32.328125 C 3.753906 -33.703125 3.960938 -35.050781 4.234375 -36.375 C 4.503906 -37.707031 4.859375 -39.035156 5.296875 -40.359375 C 5.492188 -40.898438 5.675781 -41.441406 5.84375 -41.984375 C 6.019531 -42.523438 6.234375 -43.039062 6.484375 -43.53125 C 6.878906 -44.21875 7.296875 -44.890625 7.734375 -45.546875 C 8.171875 -46.210938 8.640625 -46.867188 9.140625 -47.515625 C 9.578125 -48.046875 10.078125 -48.507812 10.640625 -48.90625 C 11.203125 -49.300781 11.734375 -49.695312 12.234375 -50.09375 C 12.921875 -50.625 13.628906 -51.050781 14.359375 -51.375 C 15.097656 -51.695312 15.859375 -51.976562 16.640625 -52.21875 C 17.179688 -52.414062 17.722656 -52.539062 18.265625 -52.59375 C 18.804688 -52.644531 19.320312 -52.691406 19.8125 -52.734375 C 20.550781 -52.734375 21.285156 -52.742188 22.015625 -52.765625 C 22.753906 -52.796875 23.492188 -52.765625 24.234375 -52.671875 C 24.722656 -52.617188 25.1875 -52.53125 25.625 -52.40625 C 26.070312 -52.28125 26.539062 -52.171875 27.03125 -52.078125 C 27.03125 -52.023438 27.039062 -52 27.0625 -52 C 27.09375 -52 27.109375 -52 27.109375 -52 C 27.796875 -51.65625 28.457031 -51.335938 29.09375 -51.046875 C 29.726562 -50.753906 30.34375 -50.410156 30.9375 -50.015625 C 31.476562 -49.671875 31.96875 -49.265625 32.40625 -48.796875 C 32.851562 -48.328125 33.25 -47.847656 33.59375 -47.359375 C 34.425781 -46.273438 35.132812 -45.15625 35.71875 -44 C 36.3125 -42.851562 36.726562 -41.617188 36.96875 -40.296875 C 37.164062 -39.503906 37.347656 -38.703125 37.515625 -37.890625 C 37.691406 -37.085938 37.851562 -36.265625 38 -35.421875 C 38.25 -34.097656 38.457031 -32.773438 38.625 -31.453125 C 38.800781 -30.128906 38.863281 -28.78125 38.8125 -27.40625 Z M 12.671875 -25.1875 C 12.617188 -24.101562 12.628906 -23 12.703125 -21.875 C 12.773438 -20.75 12.910156 -19.617188 13.109375 -18.484375 C 13.253906 -17.597656 13.4375 -16.722656 13.65625 -15.859375 C 13.882812 -15.003906 14.191406 -14.160156 14.578125 -13.328125 C 14.972656 -12.640625 15.453125 -12.050781 16.015625 -11.5625 C 16.585938 -11.070312 17.265625 -10.703125 18.046875 -10.453125 C 18.441406 -10.359375 18.847656 -10.273438 19.265625 -10.203125 C 19.679688 -10.128906 20.082031 -10.039062 20.46875 -9.9375 C 21.15625 -9.789062 21.832031 -9.800781 22.5 -9.96875 C 23.164062 -10.144531 23.789062 -10.40625 24.375 -10.75 C 24.863281 -11 25.253906 -11.332031 25.546875 -11.75 C 25.847656 -12.164062 26.097656 -12.617188 26.296875 -13.109375 C 26.734375 -14.335938 27.085938 -15.578125 27.359375 -16.828125 C 27.628906 -18.078125 27.863281 -19.316406 28.0625 -20.546875 C 28.15625 -21.085938 28.226562 -21.648438 28.28125 -22.234375 C 28.332031 -22.828125 28.359375 -23.421875 28.359375 -24.015625 C 28.410156 -24.941406 28.445312 -25.867188 28.46875 -26.796875 C 28.488281 -27.734375 28.476562 -28.671875 28.4375 -29.609375 C 28.238281 -31.671875 27.816406 -33.832031 27.171875 -36.09375 C 26.734375 -37.46875 26.097656 -38.769531 25.265625 -40 C 25.210938 -40.09375 25.160156 -40.175781 25.109375 -40.25 C 25.066406 -40.320312 24.992188 -40.382812 24.890625 -40.4375 C 23.617188 -41.375 22.242188 -41.816406 20.765625 -41.765625 C 19.242188 -41.765625 17.921875 -41.125 16.796875 -39.84375 C 15.859375 -38.71875 15.109375 -37.503906 14.546875 -36.203125 C 13.984375 -34.898438 13.53125 -33.535156 13.1875 -32.109375 C 12.695312 -29.898438 12.523438 -27.59375 12.671875 -25.1875 Z M 12.671875 -25.1875 "/></g></g></g><g fill="#fafafa" fill-opacity="1"><g transform="translate(204.016149, 356.350201)"><g><path d="M 19 0.890625 C 18.164062 0.929688 17.351562 0.878906 16.5625 0.734375 C 15.78125 0.585938 15 0.414062 14.21875 0.21875 C 12.550781 -0.21875 11.078125 -0.90625 9.796875 -1.84375 C 9.597656 -1.988281 9.375 -2.132812 9.125 -2.28125 C 8.882812 -2.425781 8.664062 -2.570312 8.46875 -2.71875 C 7.976562 -3.113281 7.515625 -3.507812 7.078125 -3.90625 C 6.390625 -4.539062 5.773438 -5.238281 5.234375 -6 C 4.691406 -6.757812 4.175781 -7.535156 3.6875 -8.328125 C 3.539062 -8.566406 3.414062 -8.820312 3.3125 -9.09375 C 3.21875 -9.363281 3.117188 -9.625 3.015625 -9.875 C 2.867188 -10.3125 2.992188 -10.703125 3.390625 -11.046875 C 3.929688 -11.492188 4.46875 -11.972656 5 -12.484375 C 5.539062 -13.003906 6.109375 -13.457031 6.703125 -13.84375 C 6.992188 -14.09375 7.273438 -14.335938 7.546875 -14.578125 C 7.816406 -14.828125 8.078125 -15.078125 8.328125 -15.328125 C 8.617188 -15.617188 9.007812 -15.8125 9.5 -15.90625 C 9.75 -16.007812 9.929688 -15.984375 10.046875 -15.828125 C 10.171875 -15.679688 10.285156 -15.5625 10.390625 -15.46875 C 10.585938 -15.269531 10.757812 -15.0625 10.90625 -14.84375 C 11.050781 -14.625 11.195312 -14.390625 11.34375 -14.140625 C 11.78125 -13.703125 12.207031 -13.25 12.625 -12.78125 C 13.050781 -12.3125 13.53125 -11.929688 14.0625 -11.640625 C 14.257812 -11.535156 14.429688 -11.4375 14.578125 -11.34375 C 14.734375 -11.25 14.90625 -11.148438 15.09375 -11.046875 C 15.59375 -10.847656 16.0625 -10.660156 16.5 -10.484375 C 16.9375 -10.316406 17.40625 -10.160156 17.90625 -10.015625 C 18.738281 -9.722656 19.59375 -9.695312 20.46875 -9.9375 C 21.007812 -10.132812 21.535156 -10.34375 22.046875 -10.5625 C 22.566406 -10.789062 23.023438 -11.097656 23.421875 -11.484375 C 24.597656 -12.566406 24.914062 -13.894531 24.375 -15.46875 C 24.03125 -16.40625 23.414062 -17.164062 22.53125 -17.75 C 22.1875 -18 21.816406 -18.253906 21.421875 -18.515625 C 21.035156 -18.785156 20.644531 -19.019531 20.25 -19.21875 C 19.664062 -19.5625 19.085938 -19.90625 18.515625 -20.25 C 17.953125 -20.59375 17.328125 -20.863281 16.640625 -21.0625 C 16.253906 -21.207031 15.863281 -21.390625 15.46875 -21.609375 C 15.070312 -21.835938 14.679688 -22.050781 14.296875 -22.25 C 13.753906 -22.488281 13.285156 -22.734375 12.890625 -22.984375 C 12.453125 -23.328125 12.007812 -23.644531 11.5625 -23.9375 C 11.125 -24.226562 10.679688 -24.546875 10.234375 -24.890625 C 9.890625 -25.191406 9.546875 -25.5 9.203125 -25.8125 C 8.859375 -26.132812 8.492188 -26.441406 8.109375 -26.734375 C 7.710938 -27.128906 7.378906 -27.535156 7.109375 -27.953125 C 6.835938 -28.367188 6.578125 -28.820312 6.328125 -29.3125 C 6.085938 -29.851562 5.851562 -30.429688 5.625 -31.046875 C 5.40625 -31.660156 5.25 -32.257812 5.15625 -32.84375 C 4.46875 -36.28125 4.835938 -39.597656 6.265625 -42.796875 C 6.609375 -43.628906 7.023438 -44.390625 7.515625 -45.078125 C 8.003906 -45.765625 8.492188 -46.453125 8.984375 -47.140625 C 9.578125 -47.878906 10.226562 -48.515625 10.9375 -49.046875 C 11.644531 -49.585938 12.394531 -50.109375 13.1875 -50.609375 C 13.425781 -50.753906 13.65625 -50.882812 13.875 -51 C 14.101562 -51.125 14.316406 -51.238281 14.515625 -51.34375 C 15.492188 -51.882812 16.519531 -52.226562 17.59375 -52.375 C 18.675781 -52.519531 19.757812 -52.617188 20.84375 -52.671875 C 22.164062 -52.671875 23.414062 -52.5 24.59375 -52.15625 C 25.382812 -51.957031 26.144531 -51.695312 26.875 -51.375 C 27.613281 -51.050781 28.304688 -50.625 28.953125 -50.09375 C 29.484375 -49.75 30.003906 -49.363281 30.515625 -48.9375 C 31.035156 -48.519531 31.492188 -48.046875 31.890625 -47.515625 C 32.179688 -47.171875 32.472656 -46.835938 32.765625 -46.515625 C 33.066406 -46.191406 33.316406 -45.835938 33.515625 -45.453125 C 33.859375 -44.710938 33.785156 -44.023438 33.296875 -43.390625 C 32.953125 -42.890625 32.59375 -42.421875 32.21875 -41.984375 C 31.851562 -41.546875 31.472656 -41.078125 31.078125 -40.578125 C 30.878906 -40.335938 30.644531 -40.082031 30.375 -39.8125 C 30.113281 -39.539062 29.859375 -39.28125 29.609375 -39.03125 C 29.359375 -38.789062 29.070312 -38.632812 28.75 -38.5625 C 28.4375 -38.488281 28.082031 -38.453125 27.6875 -38.453125 C 27.644531 -38.453125 27.585938 -38.472656 27.515625 -38.515625 C 27.441406 -38.566406 27.351562 -38.617188 27.25 -38.671875 C 27.007812 -38.910156 26.753906 -39.128906 26.484375 -39.328125 C 26.210938 -39.523438 25.953125 -39.722656 25.703125 -39.921875 C 25.160156 -40.515625 24.425781 -40.929688 23.5 -41.171875 C 22.707031 -41.421875 21.914062 -41.554688 21.125 -41.578125 C 20.34375 -41.597656 19.5625 -41.5625 18.78125 -41.46875 C 18.144531 -41.46875 17.484375 -41.171875 16.796875 -40.578125 C 16.109375 -40.085938 15.664062 -39.523438 15.46875 -38.890625 C 15.320312 -38.203125 15.273438 -37.585938 15.328125 -37.046875 C 15.421875 -36.304688 15.710938 -35.644531 16.203125 -35.0625 C 16.648438 -34.46875 17.289062 -33.925781 18.125 -33.4375 C 18.65625 -33.09375 19.226562 -32.75 19.84375 -32.40625 C 20.457031 -32.0625 21.035156 -31.71875 21.578125 -31.375 C 21.722656 -31.28125 21.878906 -31.207031 22.046875 -31.15625 C 22.222656 -31.101562 22.382812 -31.03125 22.53125 -30.9375 C 23.070312 -30.6875 23.613281 -30.4375 24.15625 -30.1875 C 24.695312 -29.945312 25.210938 -29.679688 25.703125 -29.390625 C 26.242188 -29.140625 26.75 -28.890625 27.21875 -28.640625 C 27.6875 -28.398438 28.140625 -28.082031 28.578125 -27.6875 C 28.828125 -27.5 29.070312 -27.304688 29.3125 -27.109375 C 29.5625 -26.910156 29.785156 -26.710938 29.984375 -26.515625 C 30.171875 -26.367188 30.328125 -26.207031 30.453125 -26.03125 C 30.578125 -25.863281 30.738281 -25.726562 30.9375 -25.625 C 31.375 -25.28125 31.789062 -24.910156 32.1875 -24.515625 C 32.582031 -24.128906 32.898438 -23.664062 33.140625 -23.125 C 33.242188 -22.882812 33.367188 -22.640625 33.515625 -22.390625 C 33.660156 -22.140625 33.78125 -21.894531 33.875 -21.65625 C 34.03125 -21.207031 34.191406 -20.75 34.359375 -20.28125 C 34.535156 -19.820312 34.644531 -19.367188 34.6875 -18.921875 C 35.375 -15.441406 35.007812 -12.101562 33.59375 -8.90625 C 33.25 -8.125 32.84375 -7.375 32.375 -6.65625 C 31.90625 -5.945312 31.398438 -5.25 30.859375 -4.5625 C 30.316406 -3.832031 29.675781 -3.207031 28.9375 -2.6875 C 28.207031 -2.175781 27.472656 -1.648438 26.734375 -1.109375 C 26.535156 -1.003906 26.328125 -0.890625 26.109375 -0.765625 C 25.890625 -0.648438 25.65625 -0.519531 25.40625 -0.375 C 24.375 0.125 23.332031 0.457031 22.28125 0.625 C 21.226562 0.800781 20.132812 0.890625 19 0.890625 Z M 19 0.890625 "/></g></g></g><g fill="#fafafa" fill-opacity="1"><g transform="translate(242.017788, 356.350201)"><g><path d="M 20.84375 1.03125 C 20.75 1.03125 20.625 1.03125 20.46875 1.03125 C 20.320312 1.03125 20.203125 1.03125 20.109375 1.03125 C 19.367188 1.082031 18.65625 1.046875 17.96875 0.921875 C 17.28125 0.796875 16.59375 0.632812 15.90625 0.4375 C 15.46875 0.289062 15.039062 0.15625 14.625 0.03125 C 14.207031 -0.0820312 13.800781 -0.21875 13.40625 -0.375 C 13.207031 -0.46875 13.007812 -0.5625 12.8125 -0.65625 C 12.613281 -0.757812 12.394531 -0.859375 12.15625 -0.953125 C 10.4375 -1.984375 9.007812 -3.238281 7.875 -4.71875 C 7.382812 -5.40625 6.914062 -6.113281 6.46875 -6.84375 C 6.03125 -7.582031 5.617188 -8.320312 5.234375 -9.0625 C 5.128906 -9.300781 5.003906 -9.519531 4.859375 -9.71875 C 4.710938 -9.914062 4.59375 -10.113281 4.5 -10.3125 C 4.300781 -10.707031 4.113281 -11.097656 3.9375 -11.484375 C 3.769531 -11.878906 3.632812 -12.273438 3.53125 -12.671875 C 3.488281 -12.960938 3.40625 -13.265625 3.28125 -13.578125 C 3.15625 -13.898438 3.046875 -14.210938 2.953125 -14.515625 C 2.847656 -14.898438 2.742188 -15.3125 2.640625 -15.75 C 2.546875 -16.195312 2.453125 -16.617188 2.359375 -17.015625 C 2.253906 -17.554688 2.15625 -18.117188 2.0625 -18.703125 C 1.96875 -19.296875 1.867188 -19.863281 1.765625 -20.40625 C 1.671875 -21.238281 1.609375 -22.046875 1.578125 -22.828125 C 1.554688 -23.617188 1.570312 -24.40625 1.625 -25.1875 C 1.664062 -25.78125 1.734375 -26.359375 1.828125 -26.921875 C 1.929688 -27.484375 2.007812 -28.0625 2.0625 -28.65625 C 2.113281 -28.851562 2.160156 -29.023438 2.203125 -29.171875 C 2.253906 -29.316406 2.304688 -29.460938 2.359375 -29.609375 C 2.410156 -29.898438 2.457031 -30.179688 2.5 -30.453125 C 2.550781 -30.722656 2.601562 -31.003906 2.65625 -31.296875 C 2.695312 -31.984375 2.800781 -32.679688 2.96875 -33.390625 C 3.144531 -34.109375 3.332031 -34.8125 3.53125 -35.5 C 3.726562 -36.09375 3.925781 -36.695312 4.125 -37.3125 C 4.320312 -37.925781 4.539062 -38.550781 4.78125 -39.1875 C 5.125 -40.019531 5.492188 -40.851562 5.890625 -41.6875 C 6.285156 -42.519531 6.753906 -43.332031 7.296875 -44.125 C 7.929688 -45.007812 8.640625 -45.832031 9.421875 -46.59375 C 10.210938 -47.351562 11.023438 -48.078125 11.859375 -48.765625 C 12.796875 -49.492188 13.789062 -50.101562 14.84375 -50.59375 C 15.894531 -51.09375 16.960938 -51.535156 18.046875 -51.921875 C 18.335938 -52.023438 18.628906 -52.125 18.921875 -52.21875 C 19.222656 -52.320312 19.546875 -52.394531 19.890625 -52.4375 C 20.273438 -52.539062 20.648438 -52.59375 21.015625 -52.59375 C 21.390625 -52.59375 21.773438 -52.59375 22.171875 -52.59375 C 23.296875 -52.59375 24.347656 -52.421875 25.328125 -52.078125 C 26.316406 -51.734375 27.273438 -51.289062 28.203125 -50.75 C 28.742188 -50.457031 29.269531 -50.113281 29.78125 -49.71875 C 30.300781 -49.320312 30.785156 -48.929688 31.234375 -48.546875 C 31.578125 -48.296875 31.90625 -48.046875 32.21875 -47.796875 C 32.539062 -47.554688 32.828125 -47.3125 33.078125 -47.0625 C 33.804688 -46.332031 34.320312 -45.472656 34.625 -44.484375 C 34.71875 -44.140625 34.691406 -43.804688 34.546875 -43.484375 C 34.398438 -43.171875 34.203125 -42.867188 33.953125 -42.578125 C 33.710938 -42.234375 33.441406 -41.898438 33.140625 -41.578125 C 32.847656 -41.253906 32.503906 -40.972656 32.109375 -40.734375 C 31.765625 -40.535156 31.421875 -40.300781 31.078125 -40.03125 C 30.734375 -39.757812 30.367188 -39.503906 29.984375 -39.265625 C 29.878906 -39.210938 29.765625 -39.132812 29.640625 -39.03125 C 29.523438 -38.9375 29.414062 -38.84375 29.3125 -38.75 C 28.875 -38.40625 28.53125 -38.234375 28.28125 -38.234375 C 28.039062 -38.234375 27.722656 -38.378906 27.328125 -38.671875 C 27.179688 -38.816406 27.03125 -38.972656 26.875 -39.140625 C 26.726562 -39.316406 26.582031 -39.503906 26.4375 -39.703125 C 26.09375 -40.097656 25.75 -40.488281 25.40625 -40.875 C 25.0625 -41.269531 24.644531 -41.59375 24.15625 -41.84375 C 23.519531 -42.1875 22.859375 -42.367188 22.171875 -42.390625 C 21.484375 -42.410156 20.796875 -42.320312 20.109375 -42.125 C 19.910156 -42.082031 19.722656 -42.035156 19.546875 -41.984375 C 19.378906 -41.929688 19.195312 -41.859375 19 -41.765625 C 17.53125 -41.273438 16.328125 -40.441406 15.390625 -39.265625 C 14.804688 -38.671875 14.34375 -37.832031 14 -36.75 C 13.800781 -36.3125 13.613281 -35.867188 13.4375 -35.421875 C 13.269531 -34.984375 13.113281 -34.546875 12.96875 -34.109375 C 12.863281 -33.765625 12.773438 -33.394531 12.703125 -33 C 12.628906 -32.601562 12.546875 -32.207031 12.453125 -31.8125 C 12.148438 -30.4375 11.972656 -29.070312 11.921875 -27.71875 C 11.878906 -26.375 11.859375 -24.988281 11.859375 -23.5625 C 11.859375 -22.488281 11.929688 -21.382812 12.078125 -20.25 C 12.128906 -19.90625 12.210938 -19.550781 12.328125 -19.1875 C 12.453125 -18.820312 12.59375 -18.46875 12.75 -18.125 C 12.9375 -17.53125 13.140625 -16.953125 13.359375 -16.390625 C 13.585938 -15.828125 13.800781 -15.273438 14 -14.734375 C 14.144531 -14.441406 14.316406 -14.160156 14.515625 -13.890625 C 14.710938 -13.617188 14.882812 -13.332031 15.03125 -13.03125 C 15.375 -12.25 15.960938 -11.613281 16.796875 -11.125 C 17.140625 -10.925781 17.46875 -10.691406 17.78125 -10.421875 C 18.101562 -10.148438 18.4375 -9.894531 18.78125 -9.65625 C 19.21875 -9.3125 19.78125 -9.0625 20.46875 -8.90625 C 20.914062 -8.8125 21.347656 -8.703125 21.765625 -8.578125 C 22.179688 -8.453125 22.609375 -8.414062 23.046875 -8.46875 C 23.242188 -8.519531 23.414062 -8.546875 23.5625 -8.546875 C 23.71875 -8.546875 23.890625 -8.570312 24.078125 -8.625 C 24.328125 -8.71875 24.5625 -8.8125 24.78125 -8.90625 C 25 -9.007812 25.207031 -9.085938 25.40625 -9.140625 C 25.75 -9.234375 26.054688 -9.363281 26.328125 -9.53125 C 26.597656 -9.707031 26.878906 -9.894531 27.171875 -10.09375 C 27.566406 -10.332031 27.960938 -10.613281 28.359375 -10.9375 C 28.753906 -11.257812 29.195312 -11.519531 29.6875 -11.71875 C 30.320312 -11.957031 30.859375 -11.90625 31.296875 -11.5625 C 32.085938 -11.070312 32.875 -10.507812 33.65625 -9.875 C 34.050781 -9.625 34.40625 -9.363281 34.71875 -9.09375 C 35.039062 -8.820312 35.375 -8.566406 35.71875 -8.328125 C 36.457031 -7.679688 36.554688 -6.941406 36.015625 -6.109375 C 35.671875 -5.523438 35.265625 -4.972656 34.796875 -4.453125 C 34.335938 -3.941406 33.859375 -3.441406 33.359375 -2.953125 C 32.828125 -2.453125 32.238281 -2.019531 31.59375 -1.65625 C 30.957031 -1.289062 30.296875 -0.957031 29.609375 -0.65625 C 28.578125 -0.164062 27.59375 0.175781 26.65625 0.375 C 25.726562 0.664062 24.769531 0.859375 23.78125 0.953125 C 22.800781 1.054688 21.820312 1.082031 20.84375 1.03125 Z M 20.84375 1.03125 "/></g></g></g><g fill="#fafafa" fill-opacity="1"><g transform="translate(281.345051, 356.350201)"><g><path d="M 36.3125 0.65625 C 36.019531 0.707031 35.710938 0.734375 35.390625 0.734375 C 35.066406 0.734375 34.734375 0.757812 34.390625 0.8125 C 34.242188 0.8125 34.097656 0.820312 33.953125 0.84375 C 33.804688 0.875 33.660156 0.890625 33.515625 0.890625 C 33.066406 0.929688 32.625 0.960938 32.1875 0.984375 C 31.75 1.015625 31.28125 1.054688 30.78125 1.109375 C 30.4375 1.148438 30.101562 1.144531 29.78125 1.09375 C 29.46875 1.050781 29.164062 0.929688 28.875 0.734375 C 28.625 0.585938 28.398438 0.390625 28.203125 0.140625 C 27.859375 -0.585938 27.539062 -1.320312 27.25 -2.0625 C 26.957031 -2.800781 26.738281 -3.5625 26.59375 -4.34375 C 26.539062 -4.59375 26.488281 -4.828125 26.4375 -5.046875 C 26.394531 -5.265625 26.375 -5.472656 26.375 -5.671875 C 26.269531 -5.960938 26.097656 -6.085938 25.859375 -6.046875 C 25.359375 -6.046875 24.847656 -6.046875 24.328125 -6.046875 C 23.816406 -6.046875 23.296875 -6.019531 22.765625 -5.96875 C 22.222656 -5.914062 21.679688 -5.863281 21.140625 -5.8125 C 20.597656 -5.769531 20.054688 -5.722656 19.515625 -5.671875 C 18.878906 -5.617188 18.226562 -5.59375 17.5625 -5.59375 C 16.90625 -5.59375 16.234375 -5.59375 15.546875 -5.59375 C 15.097656 -5.59375 14.835938 -5.59375 14.765625 -5.59375 C 14.691406 -5.59375 14.609375 -5.320312 14.515625 -4.78125 C 14.460938 -4.289062 14.375 -3.8125 14.25 -3.34375 C 14.125 -2.882812 13.941406 -2.429688 13.703125 -1.984375 C 13.597656 -1.742188 13.484375 -1.488281 13.359375 -1.21875 C 13.242188 -0.945312 13.132812 -0.6875 13.03125 -0.4375 C 12.882812 0.0507812 12.566406 0.296875 12.078125 0.296875 C 11.785156 0.347656 11.503906 0.382812 11.234375 0.40625 C 10.960938 0.425781 10.679688 0.4375 10.390625 0.4375 C 9.453125 0.488281 8.503906 0.535156 7.546875 0.578125 C 6.585938 0.628906 5.617188 0.679688 4.640625 0.734375 C 4.347656 0.734375 4.066406 0.71875 3.796875 0.6875 C 3.523438 0.664062 3.265625 0.632812 3.015625 0.59375 C 2.816406 0.59375 2.570312 0.492188 2.28125 0.296875 C 1.59375 -0.0976562 1.375 -0.710938 1.625 -1.546875 C 1.863281 -2.378906 2.101562 -3.238281 2.34375 -4.125 C 2.59375 -5.007812 2.816406 -5.867188 3.015625 -6.703125 C 3.210938 -7.242188 3.394531 -7.796875 3.5625 -8.359375 C 3.738281 -8.921875 3.925781 -9.445312 4.125 -9.9375 C 4.5625 -11.507812 4.929688 -13.082031 5.234375 -14.65625 C 5.523438 -16.375 5.890625 -18.066406 6.328125 -19.734375 C 6.671875 -20.910156 7.015625 -22.085938 7.359375 -23.265625 C 7.703125 -24.453125 8.046875 -25.660156 8.390625 -26.890625 C 8.734375 -28.015625 9.066406 -29.113281 9.390625 -30.1875 C 9.710938 -31.269531 10.046875 -32.351562 10.390625 -33.4375 C 10.773438 -34.863281 11.175781 -36.300781 11.59375 -37.75 C 12.019531 -39.195312 12.425781 -40.632812 12.8125 -42.0625 C 12.914062 -42.300781 13.003906 -42.566406 13.078125 -42.859375 C 13.148438 -43.160156 13.210938 -43.457031 13.265625 -43.75 C 13.503906 -44.632812 13.722656 -45.503906 13.921875 -46.359375 C 14.117188 -47.222656 14.335938 -48.097656 14.578125 -48.984375 C 14.679688 -49.222656 14.789062 -49.476562 14.90625 -49.75 C 15.03125 -50.019531 15.171875 -50.28125 15.328125 -50.53125 C 15.472656 -50.925781 15.738281 -51.125 16.125 -51.125 C 16.46875 -51.164062 16.800781 -51.195312 17.125 -51.21875 C 17.445312 -51.25 17.78125 -51.289062 18.125 -51.34375 C 18.757812 -51.4375 19.382812 -51.53125 20 -51.625 C 20.613281 -51.726562 21.210938 -51.804688 21.796875 -51.859375 C 22.046875 -51.898438 22.304688 -51.929688 22.578125 -51.953125 C 22.847656 -51.984375 23.101562 -51.972656 23.34375 -51.921875 C 23.59375 -51.878906 23.828125 -51.84375 24.046875 -51.8125 C 24.265625 -51.789062 24.472656 -51.804688 24.671875 -51.859375 C 25.460938 -51.898438 25.953125 -51.53125 26.140625 -50.75 C 26.296875 -50.257812 26.429688 -49.78125 26.546875 -49.3125 C 26.671875 -48.84375 26.785156 -48.363281 26.890625 -47.875 C 26.929688 -47.78125 26.953125 -47.671875 26.953125 -47.546875 C 26.953125 -47.421875 26.976562 -47.3125 27.03125 -47.21875 C 27.28125 -46.570312 27.476562 -45.914062 27.625 -45.25 C 27.769531 -44.59375 27.914062 -43.921875 28.0625 -43.234375 C 28.15625 -42.648438 28.285156 -42.070312 28.453125 -41.5 C 28.628906 -40.9375 28.796875 -40.363281 28.953125 -39.78125 C 29.242188 -38.84375 29.546875 -37.921875 29.859375 -37.015625 C 30.179688 -36.109375 30.46875 -35.160156 30.71875 -34.171875 C 30.957031 -33.441406 31.1875 -32.679688 31.40625 -31.890625 C 31.632812 -31.109375 31.847656 -30.320312 32.046875 -29.53125 C 32.484375 -27.769531 32.9375 -25.988281 33.40625 -24.1875 C 33.875 -22.394531 34.351562 -20.617188 34.84375 -18.859375 C 35.082031 -17.921875 35.335938 -16.960938 35.609375 -15.984375 C 35.878906 -15.003906 36.113281 -14.019531 36.3125 -13.03125 C 36.40625 -12.5 36.515625 -11.9375 36.640625 -11.34375 C 36.765625 -10.75 36.851562 -10.1875 36.90625 -9.65625 C 37 -9.3125 37.082031 -8.988281 37.15625 -8.6875 C 37.226562 -8.394531 37.289062 -8.078125 37.34375 -7.734375 C 37.4375 -7.296875 37.53125 -6.84375 37.625 -6.375 C 37.726562 -5.90625 37.832031 -5.425781 37.9375 -4.9375 C 38.03125 -4.59375 38.140625 -4.222656 38.265625 -3.828125 C 38.390625 -3.429688 38.5 -3.039062 38.59375 -2.65625 C 38.695312 -2.40625 38.785156 -2.144531 38.859375 -1.875 C 38.929688 -1.601562 38.988281 -1.347656 39.03125 -1.109375 C 39.082031 -0.765625 38.984375 -0.429688 38.734375 -0.109375 C 38.492188 0.210938 38.203125 0.421875 37.859375 0.515625 C 37.609375 0.566406 37.347656 0.613281 37.078125 0.65625 C 36.816406 0.707031 36.5625 0.707031 36.3125 0.65625 Z M 20.40625 -31.75 C 20.40625 -31.75 20.390625 -31.75 20.359375 -31.75 C 20.335938 -31.75 20.300781 -31.75 20.25 -31.75 C 20.207031 -31.550781 20.144531 -31.316406 20.0625 -31.046875 C 19.988281 -30.773438 19.929688 -30.515625 19.890625 -30.265625 C 19.585938 -28.941406 19.289062 -27.601562 19 -26.25 C 18.707031 -24.90625 18.4375 -23.546875 18.1875 -22.171875 C 18.039062 -21.484375 17.90625 -20.78125 17.78125 -20.0625 C 17.664062 -19.351562 17.554688 -18.65625 17.453125 -17.96875 C 17.410156 -17.675781 17.535156 -17.53125 17.828125 -17.53125 C 18.117188 -17.53125 18.398438 -17.53125 18.671875 -17.53125 C 18.941406 -17.53125 19.222656 -17.53125 19.515625 -17.53125 C 20.203125 -17.625 20.898438 -17.679688 21.609375 -17.703125 C 22.328125 -17.734375 23.03125 -17.800781 23.71875 -17.90625 C 24.113281 -17.945312 24.332031 -18.003906 24.375 -18.078125 C 24.425781 -18.148438 24.40625 -18.359375 24.3125 -18.703125 C 24.257812 -18.804688 24.234375 -18.878906 24.234375 -18.921875 C 24.234375 -18.972656 24.207031 -19.023438 24.15625 -19.078125 C 24.101562 -19.421875 24.015625 -19.738281 23.890625 -20.03125 C 23.773438 -20.320312 23.664062 -20.640625 23.5625 -20.984375 C 23.375 -21.972656 23.15625 -22.984375 22.90625 -24.015625 C 22.65625 -25.046875 22.359375 -26.023438 22.015625 -26.953125 C 21.828125 -27.492188 21.644531 -28.019531 21.46875 -28.53125 C 21.300781 -29.050781 21.117188 -29.582031 20.921875 -30.125 C 20.816406 -30.375 20.726562 -30.644531 20.65625 -30.9375 C 20.582031 -31.226562 20.5 -31.5 20.40625 -31.75 Z M 20.40625 -31.75 "/></g></g></g><g fill="#fafafa" fill-opacity="1"><g transform="translate(321.924312, 356.350201)"><g><path d="M 12.671875 -26.59375 C 12.671875 -26.488281 12.671875 -26.398438 12.671875 -26.328125 C 12.671875 -26.253906 12.671875 -26.171875 12.671875 -26.078125 C 12.671875 -24.160156 12.671875 -22.234375 12.671875 -20.296875 C 12.671875 -18.359375 12.644531 -16.429688 12.59375 -14.515625 C 12.59375 -13.285156 12.566406 -12.054688 12.515625 -10.828125 C 12.472656 -9.597656 12.453125 -8.367188 12.453125 -7.140625 C 12.453125 -6.210938 12.460938 -5.289062 12.484375 -4.375 C 12.503906 -3.46875 12.539062 -2.550781 12.59375 -1.625 C 12.59375 -0.832031 12.300781 -0.289062 11.71875 0 C 11.175781 0.25 10.5625 0.421875 9.875 0.515625 C 8.988281 0.566406 8.101562 0.566406 7.21875 0.515625 C 6.332031 0.460938 5.445312 0.414062 4.5625 0.375 C 3.925781 0.375 3.5625 0.03125 3.46875 -0.65625 C 3.414062 -0.851562 3.390625 -1.023438 3.390625 -1.171875 C 3.390625 -1.328125 3.390625 -1.5 3.390625 -1.6875 C 3.390625 -4.289062 3.398438 -6.929688 3.421875 -9.609375 C 3.453125 -12.285156 3.46875 -14.953125 3.46875 -17.609375 C 3.414062 -18.984375 3.375 -20.367188 3.34375 -21.765625 C 3.320312 -23.160156 3.285156 -24.546875 3.234375 -25.921875 C 3.234375 -28.628906 3.234375 -31.332031 3.234375 -34.03125 C 3.234375 -36.726562 3.234375 -39.425781 3.234375 -42.125 C 3.234375 -43.113281 3.222656 -44.070312 3.203125 -45 C 3.179688 -45.9375 3.171875 -46.867188 3.171875 -47.796875 C 3.117188 -48.046875 3.078125 -48.289062 3.046875 -48.53125 C 3.023438 -48.78125 3.015625 -49.003906 3.015625 -49.203125 C 2.972656 -49.398438 2.953125 -49.597656 2.953125 -49.796875 C 2.953125 -49.992188 2.953125 -50.1875 2.953125 -50.375 C 2.953125 -50.875 3.070312 -51.28125 3.3125 -51.59375 C 3.5625 -51.914062 3.859375 -52.175781 4.203125 -52.375 C 4.296875 -52.414062 4.46875 -52.4375 4.71875 -52.4375 C 5.101562 -52.4375 5.492188 -52.4375 5.890625 -52.4375 C 6.285156 -52.4375 6.65625 -52.4375 7 -52.4375 C 7.238281 -52.4375 7.484375 -52.4375 7.734375 -52.4375 C 7.984375 -52.4375 8.226562 -52.4375 8.46875 -52.4375 C 8.914062 -52.394531 9.359375 -52.359375 9.796875 -52.328125 C 10.234375 -52.304688 10.675781 -52.269531 11.125 -52.21875 C 11.707031 -52.125 12.125 -51.78125 12.375 -51.1875 C 12.625 -50.601562 12.90625 -50.023438 13.21875 -49.453125 C 13.539062 -48.890625 13.800781 -48.316406 14 -47.734375 C 14.4375 -46.597656 14.9375 -45.488281 15.5 -44.40625 C 16.070312 -43.332031 16.601562 -42.253906 17.09375 -41.171875 C 17.925781 -39.453125 18.78125 -37.742188 19.65625 -36.046875 C 20.539062 -34.359375 21.453125 -32.65625 22.390625 -30.9375 C 22.679688 -30.394531 22.960938 -29.84375 23.234375 -29.28125 C 23.503906 -28.71875 23.8125 -28.164062 24.15625 -27.625 C 24.644531 -26.6875 25.160156 -25.765625 25.703125 -24.859375 C 26.242188 -23.953125 26.757812 -23.03125 27.25 -22.09375 C 27.25 -22.039062 27.320312 -21.96875 27.46875 -21.875 C 27.46875 -21.96875 27.476562 -22.050781 27.5 -22.125 C 27.53125 -22.207031 27.546875 -22.269531 27.546875 -22.3125 C 27.546875 -24.820312 27.546875 -27.335938 27.546875 -29.859375 C 27.546875 -32.390625 27.519531 -34.929688 27.46875 -37.484375 C 27.46875 -38.710938 27.414062 -39.925781 27.3125 -41.125 C 27.21875 -42.332031 27.148438 -43.550781 27.109375 -44.78125 C 27.054688 -45.8125 27.03125 -46.851562 27.03125 -47.90625 C 27.03125 -48.96875 27.03125 -50.039062 27.03125 -51.125 C 27.03125 -51.5625 27.300781 -51.90625 27.84375 -52.15625 C 28.382812 -52.34375 29 -52.4375 29.6875 -52.4375 C 30.320312 -52.394531 30.957031 -52.359375 31.59375 -52.328125 C 32.238281 -52.304688 32.878906 -52.269531 33.515625 -52.21875 C 33.804688 -52.21875 34.109375 -52.21875 34.421875 -52.21875 C 34.742188 -52.21875 35.03125 -52.171875 35.28125 -52.078125 C 35.425781 -52.078125 35.597656 -52.023438 35.796875 -51.921875 C 36.140625 -51.773438 36.3125 -51.507812 36.3125 -51.125 C 36.257812 -49.59375 36.296875 -48.050781 36.421875 -46.5 C 36.546875 -44.957031 36.632812 -43.40625 36.6875 -41.84375 C 36.832031 -37.71875 36.90625 -33.539062 36.90625 -29.3125 C 36.945312 -26.90625 36.957031 -24.5 36.9375 -22.09375 C 36.914062 -19.6875 36.925781 -17.28125 36.96875 -14.875 C 36.96875 -13.351562 37.003906 -11.851562 37.078125 -10.375 C 37.160156 -8.90625 37.222656 -7.410156 37.265625 -5.890625 C 37.265625 -5.203125 37.265625 -4.488281 37.265625 -3.75 C 37.265625 -3.019531 37.289062 -2.3125 37.34375 -1.625 C 37.34375 -1.320312 37.21875 -1 36.96875 -0.65625 C 36.382812 -0.0195312 35.722656 0.296875 34.984375 0.296875 C 34.585938 0.242188 34.191406 0.242188 33.796875 0.296875 C 33.410156 0.347656 33.019531 0.394531 32.625 0.4375 C 32.132812 0.4375 31.65625 0.445312 31.1875 0.46875 C 30.726562 0.5 30.25 0.515625 29.75 0.515625 C 29.5625 0.515625 29.34375 0.441406 29.09375 0.296875 C 29 0.148438 28.875 0.00390625 28.71875 -0.140625 C 28.570312 -0.296875 28.453125 -0.445312 28.359375 -0.59375 C 27.867188 -1.425781 27.375 -2.222656 26.875 -2.984375 C 26.382812 -3.742188 25.894531 -4.515625 25.40625 -5.296875 C 25.207031 -5.742188 25 -6.1875 24.78125 -6.625 C 24.5625 -7.070312 24.328125 -7.539062 24.078125 -8.03125 C 23.734375 -8.769531 23.316406 -9.484375 22.828125 -10.171875 C 22.335938 -10.859375 21.847656 -11.566406 21.359375 -12.296875 C 20.921875 -12.984375 20.488281 -13.660156 20.0625 -14.328125 C 19.644531 -14.992188 19.21875 -15.671875 18.78125 -16.359375 C 18.195312 -17.335938 17.609375 -18.316406 17.015625 -19.296875 C 16.421875 -20.273438 15.859375 -21.257812 15.328125 -22.25 C 14.929688 -22.9375 14.5 -23.625 14.03125 -24.3125 C 13.5625 -25 13.179688 -25.734375 12.890625 -26.515625 C 12.890625 -26.566406 12.875 -26.59375 12.84375 -26.59375 C 12.820312 -26.59375 12.8125 -26.613281 12.8125 -26.65625 C 12.769531 -26.65625 12.75 -26.644531 12.75 -26.625 C 12.75 -26.601562 12.722656 -26.59375 12.671875 -26.59375 Z M 12.671875 -26.59375 "/></g></g></g></svg>