<svg xmlns="http://www.w3.org/2000/svg" xmlns:xlink="http://www.w3.org/1999/xlink" width="500" zoomAndPan="magnify" viewBox="0 0 375 374.999991" height="500" preserveAspectRatio="xMidYMid meet" version="1.0"><defs><clipPath id="7b1cbffa2d"><path d="M 112.5 112.5 L 262.5 112.5 L 262.5 262.5 L 112.5 262.5 Z M 112.5 112.5 " clip-rule="nonzero"/></clipPath></defs><rect x="-37.5" width="450" fill="#ffffff" y="-37.499999" height="449.999989" fill-opacity="1"/><rect x="-37.5" width="450" fill="#022c22" y="-37.499999" height="449.999989" fill-opacity="1"/><g clip-path="url(#7b1cbffa2d)"><path fill="#4ade80" d="M 249.375 128.445312 C 245.804688 139.304688 235.804688 156.25 208.179688 156.25 C 202.925781 156.117188 193.96875 157.84375 193.75 150 C 193.78125 149.171875 193.773438 148.347656 193.71875 147.519531 C 193.667969 146.691406 193.574219 145.871094 193.433594 145.054688 C 193.296875 144.238281 193.117188 143.429688 192.898438 142.632812 C 192.675781 141.835938 192.414062 141.050781 192.113281 140.28125 C 191.8125 139.507812 191.472656 138.753906 191.09375 138.019531 C 190.714844 137.285156 190.296875 136.570312 189.84375 135.875 C 189.390625 135.183594 188.902344 134.515625 188.378906 133.871094 C 187.859375 133.230469 187.304688 132.617188 186.71875 132.03125 C 186.132812 131.445312 185.519531 130.890625 184.878906 130.371094 C 184.234375 129.847656 183.566406 129.359375 182.875 128.90625 C 182.179688 128.453125 181.464844 128.035156 180.730469 127.65625 C 179.996094 127.277344 179.242188 126.9375 178.46875 126.636719 C 177.699219 126.335938 176.914062 126.074219 176.117188 125.851562 C 175.320312 125.632812 174.511719 125.453125 173.695312 125.316406 C 172.878906 125.175781 172.058594 125.082031 171.230469 125.03125 C 170.402344 124.976562 169.578125 124.96875 168.75 125 C 168.339844 125 167.933594 124.960938 167.53125 124.878906 C 167.128906 124.800781 166.738281 124.679688 166.359375 124.523438 C 165.980469 124.367188 165.617188 124.175781 165.277344 123.945312 C 164.9375 123.71875 164.621094 123.460938 164.332031 123.167969 C 164.039062 122.878906 163.78125 122.5625 163.554688 122.222656 C 163.324219 121.882812 163.132812 121.519531 162.976562 121.140625 C 162.820312 120.761719 162.699219 120.371094 162.621094 119.96875 C 162.539062 119.566406 162.5 119.160156 162.5 118.75 C 162.5 118.339844 162.539062 117.933594 162.621094 117.53125 C 162.699219 117.128906 162.820312 116.738281 162.976562 116.359375 C 163.132812 115.980469 163.324219 115.617188 163.554688 115.277344 C 163.78125 114.9375 164.039062 114.621094 164.332031 114.332031 C 164.621094 114.039062 164.9375 113.78125 165.277344 113.554688 C 165.617188 113.324219 165.980469 113.132812 166.359375 112.976562 C 166.738281 112.820312 167.128906 112.699219 167.53125 112.621094 C 167.933594 112.539062 168.339844 112.5 168.75 112.5 C 170.386719 112.394531 172.023438 112.410156 173.660156 112.539062 C 175.296875 112.671875 176.914062 112.917969 178.515625 113.28125 C 180.117188 113.644531 181.683594 114.117188 183.214844 114.703125 C 184.75 115.292969 186.230469 115.984375 187.664062 116.785156 C 189.097656 117.582031 190.46875 118.480469 191.773438 119.476562 C 193.078125 120.472656 194.304688 121.554688 195.453125 122.726562 C 196.601562 123.898438 197.664062 125.144531 198.632812 126.46875 C 199.605469 127.792969 200.476562 129.175781 201.25 130.625 C 202.058594 129.246094 202.957031 127.929688 203.9375 126.667969 C 204.917969 125.40625 205.976562 124.214844 207.117188 123.09375 C 208.253906 121.96875 209.457031 120.925781 210.730469 119.960938 C 212.003906 118.996094 213.335938 118.117188 214.722656 117.324219 C 216.113281 116.53125 217.546875 115.835938 219.023438 115.230469 C 220.503906 114.625 222.015625 114.121094 223.5625 113.710938 C 225.105469 113.304688 226.671875 113 228.257812 112.796875 C 229.839844 112.59375 231.433594 112.496094 233.03125 112.5 C 242.855469 111.675781 252.75 117.394531 249.375 128.445312 Z M 249.617188 152.195312 C 238.179688 165.519531 217.289062 170.21875 198.125 168.625 C 199.363281 172.742188 199.988281 176.949219 200 181.25 C 199.597656 189.539062 198.253906 197.667969 195.964844 205.644531 C 193.675781 213.621094 190.503906 221.230469 186.449219 228.46875 C 186.222656 228.808594 185.964844 229.125 185.671875 229.417969 C 185.382812 229.707031 185.070312 229.964844 184.726562 230.195312 C 184.386719 230.421875 184.027344 230.617188 183.648438 230.773438 C 183.269531 230.929688 182.878906 231.050781 182.476562 231.132812 C 182.074219 231.210938 181.667969 231.253906 181.257812 231.253906 C 180.847656 231.253906 180.441406 231.214844 180.035156 231.132812 C 179.632812 231.054688 179.242188 230.9375 178.863281 230.78125 C 178.484375 230.625 178.125 230.433594 177.78125 230.203125 C 177.441406 229.976562 177.125 229.71875 176.835938 229.429688 C 176.542969 229.140625 176.285156 228.824219 176.054688 228.484375 C 175.828125 228.140625 175.632812 227.78125 175.476562 227.402344 C 175.320312 227.023438 175.199219 226.632812 175.117188 226.230469 C 175.039062 225.828125 174.996094 225.421875 174.996094 225.011719 C 174.996094 224.601562 175.035156 224.195312 175.113281 223.792969 C 175.195312 223.390625 175.3125 223 175.46875 222.617188 C 175.625 222.238281 175.816406 221.878906 176.042969 221.539062 C 179.398438 215.320312 182.042969 208.816406 183.976562 202.019531 C 185.90625 195.226562 187.082031 188.300781 187.5 181.25 C 187.5 176.136719 184.40625 143.75 153.15625 143.75 C 151.820312 143.730469 150.484375 143.777344 149.15625 143.890625 C 147.824219 144.003906 146.5 144.183594 145.1875 144.429688 C 143.875 144.675781 142.574219 144.988281 141.292969 145.363281 C 140.011719 145.738281 138.75 146.175781 137.511719 146.679688 C 136.273438 147.179688 135.0625 147.742188 133.878906 148.367188 C 132.699219 148.988281 131.550781 149.671875 130.433594 150.40625 C 129.320312 151.144531 128.246094 151.9375 127.210938 152.785156 C 126.175781 153.628906 125.1875 154.523438 124.242188 155.46875 C 123.296875 156.414062 122.398438 157.402344 121.554688 158.4375 C 120.707031 159.472656 119.914062 160.546875 119.175781 161.660156 C 118.4375 162.773438 117.753906 163.921875 117.132812 165.101562 C 116.507812 166.285156 115.945312 167.492188 115.441406 168.730469 C 114.9375 169.96875 114.5 171.230469 114.121094 172.511719 C 113.746094 173.792969 113.433594 175.09375 113.1875 176.40625 C 112.9375 177.71875 112.757812 179.042969 112.644531 180.375 C 112.527344 181.703125 112.480469 183.039062 112.5 184.375 C 112.5 234.925781 162.042969 262.5 187.5 262.5 C 212.957031 262.5 262.5 234.925781 262.5 184.375 C 262.5 181.40625 262.21875 178.460938 261.65625 175.542969 C 261.097656 172.628906 260.265625 169.789062 259.160156 167.03125 C 258.058594 164.273438 256.707031 161.644531 255.101562 159.144531 C 253.496094 156.644531 251.671875 154.320312 249.625 152.167969 Z M 249.617188 152.195312 " fill-opacity="1" fill-rule="nonzero"/></g></svg>