<svg xmlns="http://www.w3.org/2000/svg" xmlns:xlink="http://www.w3.org/1999/xlink" width="500" zoomAndPan="magnify" viewBox="0 0 375 374.999991" height="500" preserveAspectRatio="xMidYMid meet" version="1.0"><defs><clipPath id="f7f33ea9d0"><path d="M 112.5 112.5 L 262.5 112.5 L 262.5 262.5 L 112.5 262.5 Z M 112.5 112.5 " clip-rule="nonzero"/></clipPath></defs><rect x="-37.5" width="450" fill="#ffffff" y="-37.499999" height="449.999989" fill-opacity="1"/><rect x="-37.5" width="450" fill="#022c22" y="-37.499999" height="449.999989" fill-opacity="1"/><g clip-path="url(#f7f33ea9d0)"><path fill="#34d399" d="M 262.5 187.5 C 262.5 176.898438 257.125 167.554688 248.949219 162.042969 C 250.832031 152.367188 248.023438 141.960938 240.53125 134.460938 C 233.039062 126.96875 222.632812 124.164062 212.949219 126.042969 C 207.4375 117.867188 198.09375 112.492188 187.492188 112.492188 C 176.894531 112.492188 167.550781 117.867188 162.039062 126.042969 C 152.363281 124.164062 141.949219 126.96875 134.457031 134.460938 C 126.960938 141.957031 124.15625 152.363281 126.039062 162.042969 C 117.863281 167.554688 112.488281 176.898438 112.488281 187.5 C 112.488281 198.101562 117.863281 207.445312 126.039062 212.957031 C 124.15625 222.632812 126.960938 233.042969 134.457031 240.539062 C 141.949219 248.03125 152.355469 250.835938 162.039062 248.957031 C 167.550781 257.132812 176.894531 262.507812 187.492188 262.507812 C 198.09375 262.507812 207.4375 257.132812 212.949219 248.957031 C 222.625 250.835938 233.039062 248.03125 240.53125 240.539062 C 248.023438 233.042969 250.832031 222.636719 248.949219 212.957031 C 257.125 207.445312 262.5 198.101562 262.5 187.5 Z M 186.929688 208.867188 C 184.511719 211.289062 181.332031 212.492188 178.136719 212.492188 C 174.945312 212.492188 171.730469 211.273438 169.289062 208.835938 L 151.898438 191.988281 L 160.605469 183.007812 L 178.0625 199.925781 L 214.367188 164.292969 L 223.144531 173.199219 L 186.9375 208.867188 Z M 186.929688 208.867188 " fill-opacity="1" fill-rule="nonzero"/></g></svg>