<svg xmlns="http://www.w3.org/2000/svg" xmlns:xlink="http://www.w3.org/1999/xlink" width="500" zoomAndPan="magnify" viewBox="0 0 375 374.999991" height="500" preserveAspectRatio="xMidYMid meet" version="1.0"><defs><clipPath id="3f7aa8b579"><path d="M 131 112.5 L 244 112.5 L 244 262.5 L 131 262.5 Z M 131 112.5 " clip-rule="nonzero"/></clipPath></defs><rect x="-37.5" width="450" fill="#ffffff" y="-37.499999" height="449.999989" fill-opacity="1"/><rect x="-37.5" width="450" fill="#022c22" y="-37.499999" height="449.999989" fill-opacity="1"/><g clip-path="url(#3f7aa8b579)"><path fill="#34d399" d="M 211.429688 125 C 208.851562 117.726562 201.898438 112.5 193.75 112.5 L 181.25 112.5 C 173.101562 112.5 166.148438 117.726562 163.570312 125 L 131.25 125 L 131.25 243.75 C 131.25 254.085938 139.664062 262.5 150 262.5 L 225 262.5 C 235.335938 262.5 243.75 254.085938 243.75 243.75 L 243.75 125 Z M 186.925781 208.875 C 184.511719 211.289062 181.332031 212.5 178.144531 212.5 C 174.957031 212.5 171.730469 211.28125 169.289062 208.835938 L 155.042969 195.132812 L 163.710938 186.125 L 178.042969 199.917969 L 208.125 170.542969 L 216.875 179.460938 L 186.925781 208.882812 Z M 186.925781 208.875 " fill-opacity="1" fill-rule="nonzero"/></g></svg>