<svg xmlns="http://www.w3.org/2000/svg" xmlns:xlink="http://www.w3.org/1999/xlink" width="500" zoomAndPan="magnify" viewBox="0 0 375 374.999991" height="500" preserveAspectRatio="xMidYMid meet" version="1.0"><defs><clipPath id="f4dccef952"><path d="M 112.5 112.5 L 262.5 112.5 L 262.5 262.5 L 112.5 262.5 Z M 112.5 112.5 " clip-rule="nonzero"/></clipPath></defs><rect x="-37.5" width="450" fill="#ffffff" y="-37.499999" height="449.999989" fill-opacity="1"/><rect x="-37.5" width="450" fill="#022c22" y="-37.499999" height="449.999989" fill-opacity="1"/><g clip-path="url(#f4dccef952)"><path fill="#34d399" d="M 112.5 156.25 L 112.5 137.5 C 112.5 134.050781 115.300781 131.25 118.75 131.25 C 122.199219 131.25 125 134.050781 125 137.5 L 125 146.324219 C 138.8125 125.417969 162.289062 112.5 187.5 112.5 C 226.582031 112.5 258.695312 141.8125 262.195312 180.6875 C 262.507812 184.125 259.96875 187.164062 256.53125 187.476562 C 256.34375 187.488281 256.148438 187.5 255.960938 187.5 C 252.761719 187.5 250.039062 185.054688 249.742188 181.8125 C 246.824219 149.425781 220.070312 125 187.5 125 C 165.257812 125 144.511719 136.976562 133.363281 156.25 L 143.75 156.25 C 147.199219 156.25 150 159.050781 150 162.5 C 150 165.949219 147.199219 168.75 143.75 168.75 L 125 168.75 C 118.105469 168.75 112.5 163.144531 112.5 156.25 Z M 250 206.25 L 231.25 206.25 C 227.792969 206.25 225 209.042969 225 212.5 C 225 215.957031 227.792969 218.75 231.25 218.75 L 241.636719 218.75 C 230.480469 238.023438 209.738281 250 187.5 250 C 154.9375 250 128.175781 225.574219 125.257812 193.1875 C 124.949219 189.757812 121.988281 187.289062 118.46875 187.523438 C 115.03125 187.835938 112.5 190.875 112.804688 194.3125 C 116.3125 233.1875 148.425781 262.5 187.5 262.5 C 212.707031 262.5 236.1875 249.574219 250 228.667969 L 250 237.5 C 250 240.957031 252.792969 243.75 256.25 243.75 C 259.707031 243.75 262.5 240.957031 262.5 237.5 L 262.5 218.75 C 262.5 211.855469 256.894531 206.25 250 206.25 Z M 200 156.25 C 206.90625 156.25 212.5 161.84375 212.5 168.75 L 212.5 206.25 C 212.5 213.15625 206.90625 218.75 200 218.75 L 175 218.75 C 168.09375 218.75 162.5 213.15625 162.5 206.25 L 162.5 168.75 C 162.5 161.84375 168.09375 156.25 175 156.25 Z M 193.75 200 C 193.75 196.550781 190.949219 193.75 187.5 193.75 L 181.25 193.75 C 177.800781 193.75 175 196.550781 175 200 C 175 203.449219 177.800781 206.25 181.25 206.25 L 187.5 206.25 C 190.949219 206.25 193.75 203.449219 193.75 200 Z M 200 175 C 200 171.550781 197.199219 168.75 193.75 168.75 L 181.25 168.75 C 177.800781 168.75 175 171.550781 175 175 C 175 178.449219 177.800781 181.25 181.25 181.25 L 193.75 181.25 C 197.199219 181.25 200 178.449219 200 175 Z M 200 175 " fill-opacity="1" fill-rule="nonzero"/></g></svg>