<svg xmlns="http://www.w3.org/2000/svg" xmlns:xlink="http://www.w3.org/1999/xlink" width="500" zoomAndPan="magnify" viewBox="0 0 375 374.999991" height="500" preserveAspectRatio="xMidYMid meet" version="1.0"><defs><clipPath id="a1e9265d2f"><path d="M 112.5 112.5 L 262.5 112.5 L 262.5 262.5 L 112.5 262.5 Z M 112.5 112.5 " clip-rule="nonzero"/></clipPath></defs><g clip-path="url(#a1e9265d2f)"><path fill="#34d399" d="M 176.542969 173.449219 L 202.710938 147.289062 L 227.710938 172.289062 L 201.550781 198.457031 Z M 167.707031 182.289062 L 117.707031 232.289062 C 117.089844 232.902344 116.527344 233.558594 116.007812 234.257812 C 115.488281 234.957031 115.027344 235.6875 114.617188 236.453125 C 114.207031 237.222656 113.855469 238.015625 113.5625 238.832031 C 113.269531 239.652344 113.039062 240.488281 112.871094 241.339844 C 112.699219 242.191406 112.59375 243.050781 112.550781 243.921875 C 112.507812 244.789062 112.53125 245.65625 112.613281 246.519531 C 112.699219 247.386719 112.847656 248.238281 113.058594 249.082031 C 113.269531 249.925781 113.542969 250.75 113.875 251.554688 C 114.207031 252.355469 114.597656 253.128906 115.046875 253.875 C 115.492188 254.621094 115.992188 255.332031 116.542969 256.003906 C 117.09375 256.675781 117.691406 257.304688 118.335938 257.886719 C 118.980469 258.472656 119.664062 259.003906 120.386719 259.488281 C 121.109375 259.96875 121.863281 260.398438 122.648438 260.769531 C 123.433594 261.140625 124.242188 261.453125 125.074219 261.707031 C 125.90625 261.957031 126.753906 262.148438 127.613281 262.277344 C 128.472656 262.40625 129.335938 262.46875 130.207031 262.46875 C 132.550781 262.476562 134.808594 262.03125 136.976562 261.132812 C 139.144531 260.234375 141.054688 258.953125 142.707031 257.289062 L 192.707031 207.289062 Z M 229.167969 220.625 L 237.5 237.261719 L 245.832031 220.625 L 262.5 212.261719 L 245.832031 203.925781 L 237.5 187.261719 L 229.167969 203.925781 L 212.5 212.261719 Z M 154.167969 145.863281 L 162.5 162.5 L 170.832031 145.832031 L 187.5 137.5 L 170.832031 129.167969 L 162.5 112.5 L 154.167969 129.167969 L 137.5 137.5 Z M 233.332031 141.699219 L 240.625 156.25 L 247.917969 141.667969 L 262.5 134.375 L 247.917969 127.082031 L 240.625 112.5 L 233.332031 127.082031 L 218.75 134.375 Z M 233.332031 141.699219 " fill-opacity="1" fill-rule="nonzero"/></g></svg>